<svg width="266" height="78" viewBox="0 0 266 78" fill="none" xmlns="http://www.w3.org/2000/svg">
<path d="M12.976 76.768L2.736 73.952C2.05333 73.7813 1.49867 73.3973 1.072 72.8C0.645333 72.2027 0.56 71.52 0.816 70.752L17.072 3.03999C17.4987 1.67466 18.3093 0.991997 19.504 0.991997L32.688 0.479996C34.0533 0.479996 34.9493 1.12 35.376 2.39999L53.936 68.064C54.1067 68.7467 54.0213 69.4293 53.68 70.112C53.3387 70.7093 52.784 71.0933 52.016 71.264L45.872 72.928C45.1893 73.0987 44.5067 73.0133 43.824 72.672C43.2267 72.3307 42.8427 71.8187 42.672 71.136L38.192 56.032C38.1067 55.776 37.936 55.52 37.68 55.264C37.424 55.008 37.1253 54.9227 36.784 55.008L21.168 56.928C20.656 56.928 20.3147 57.2693 20.144 57.952L16.176 74.848C15.7493 76.384 14.6827 77.024 12.976 76.768ZM24.112 48.608L34.096 47.328C35.0347 46.9867 35.376 46.3893 35.12 45.536L29.744 26.848C29.5733 26.1653 29.1467 25.8667 28.464 25.952C27.7813 25.952 27.3547 26.2933 27.184 26.976L22.704 46.944C22.5333 47.456 22.6187 47.8827 22.96 48.224C23.3013 48.5653 23.6853 48.6933 24.112 48.608ZM58.093 14.944C57.9223 14.2613 58.0077 13.664 58.349 13.152C58.7757 12.64 59.2877 12.2987 59.885 12.128C62.2743 11.4453 65.133 10.848 68.461 10.336C71.789 9.82399 75.245 9.56799 78.829 9.56799C82.157 9.56799 85.4423 9.86666 88.685 10.464C92.013 10.976 95.0423 11.9573 97.773 13.408C100.504 14.7733 102.808 16.608 104.685 18.912C106.562 21.1307 107.714 23.9893 108.141 27.488C108.824 32.864 108.226 37.1733 106.349 40.416C104.557 43.6587 102.04 46.2187 98.797 48.096C98.3703 48.352 98.157 48.736 98.157 49.248C98.157 49.6747 98.3703 50.0587 98.797 50.4C102.125 52.1067 104.13 54.752 104.813 58.336C105.154 60.7253 104.728 62.9867 103.533 65.12C102.338 67.168 100.205 68.96 97.133 70.496C94.061 72.032 89.965 73.2267 84.845 74.08C79.725 74.848 73.325 75.0613 65.645 74.72C64.9623 74.72 64.365 74.5067 63.853 74.08C63.4263 73.568 63.1703 72.9707 63.085 72.288L58.093 14.944ZM94.701 29.28C94.2743 25.0987 92.781 22.112 90.221 20.32C87.661 18.528 84.589 17.632 81.005 17.632C79.3837 17.632 77.5917 17.8453 75.629 18.272C74.6903 18.4427 74.3063 18.8693 74.477 19.552L76.013 44.64C76.013 45.5787 76.4823 45.9627 77.421 45.792C84.077 44.6827 88.7277 42.7627 91.373 40.032C94.0183 37.3013 95.1277 33.7173 94.701 29.28ZM77.293 65.632C77.293 66.4853 77.7623 66.912 78.701 66.912C80.5783 66.912 82.3277 66.8267 83.949 66.656C85.6557 66.4 87.1063 65.9733 88.301 65.376C89.581 64.6933 90.5623 63.8827 91.245 62.944C91.9277 61.92 92.2263 60.64 92.141 59.104C92.0557 54.752 87.277 52.832 77.805 53.344C77.037 53.344 76.653 53.8133 76.653 54.752L77.293 65.632ZM134.549 16.096C138.645 15.4133 142.229 15.6267 145.301 16.736C148.458 17.76 151.146 19.296 153.365 21.344C155.584 23.392 157.29 25.7813 158.485 28.512C159.765 31.2427 160.576 33.9733 160.917 36.704C161.344 39.6053 161.301 42.592 160.789 45.664C160.277 48.6507 159.253 51.424 157.717 53.984C156.181 56.544 154.048 58.72 151.317 60.512C148.586 62.304 145.173 63.4133 141.077 63.84C137.749 64.1813 134.677 63.9253 131.861 63.072C129.045 62.1333 126.528 60.8107 124.309 59.104C122.176 57.3973 120.384 55.3067 118.933 52.832C117.482 50.3573 116.416 47.712 115.733 44.896C115.136 41.9093 115.008 38.88 115.349 35.808C115.69 32.6507 116.586 29.7493 118.037 27.104C119.488 24.3733 121.578 22.0267 124.309 20.064C127.04 18.016 130.453 16.6933 134.549 16.096ZM136.341 22.112C134.89 22.368 133.696 23.136 132.757 24.416C131.904 25.6107 131.264 27.1467 130.837 29.024C130.496 30.816 130.325 32.8213 130.325 35.04C130.325 37.2587 130.453 39.4347 130.709 41.568C130.965 43.5307 131.306 45.4507 131.733 47.328C132.16 49.12 132.757 50.6987 133.525 52.064C134.293 53.4293 135.232 54.496 136.341 55.264C137.45 56.032 138.773 56.3733 140.309 56.288C142.101 56.1173 143.509 55.4773 144.533 54.368C145.557 53.1733 146.325 51.7227 146.837 50.016C147.349 48.224 147.605 46.2187 147.605 44C147.605 41.7813 147.434 39.6053 147.093 37.472C146.837 35.424 146.41 33.4613 145.813 31.584C145.301 29.6213 144.618 27.9147 143.765 26.464C142.912 25.0133 141.888 23.904 140.693 23.136C139.498 22.2827 138.048 21.9413 136.341 22.112ZM180.259 14.176C180.942 14.3467 181.496 14.688 181.923 15.2C182.435 15.6267 182.691 16.1813 182.691 16.864C182.691 23.008 182.691 28.9387 182.691 34.656C182.691 40.3733 182.862 45.4507 183.203 49.888C183.63 54.3253 184.312 57.9093 185.251 60.64C186.275 63.2853 187.726 64.6507 189.603 64.736C191.907 64.8213 193.656 63.3707 194.851 60.384C196.046 57.3973 196.856 53.472 197.283 48.608C197.71 43.6587 197.923 38.0693 197.923 31.84C197.923 25.6107 197.838 19.2533 197.667 12.768C197.582 12 197.795 11.36 198.307 10.848C198.819 10.336 199.416 10.0373 200.099 9.952L210.083 9.312C210.766 9.22666 211.406 9.44 212.003 9.952C212.6 10.3787 212.942 10.976 213.027 11.744C213.198 13.536 213.368 16.0533 213.539 19.296C213.795 22.4533 214.094 25.9947 214.435 29.92C214.776 33.76 215.118 37.856 215.459 42.208C215.8 46.4747 216.142 50.5707 216.483 54.496C216.824 58.336 217.123 61.8773 217.379 65.12C217.635 68.2773 217.848 70.752 218.019 72.544C218.104 73.2267 217.891 73.8667 217.379 74.464C216.867 74.976 216.27 75.3173 215.587 75.488L212.131 75.744C210.51 75.9147 209.571 75.1467 209.315 73.44C209.059 72.2453 208.76 70.7947 208.419 69.088C208.163 67.296 207.864 65.4187 207.523 63.456C207.438 62.8587 207.096 62.5173 206.499 62.432C205.902 62.2613 205.432 62.432 205.091 62.944C203.214 66.272 201.038 68.6613 198.563 70.112C196.088 71.5627 193.486 72.416 190.755 72.672C187.171 73.0133 183.8 72.416 180.643 70.88C177.486 69.344 174.84 66.4427 172.707 62.176C170.574 57.824 169.08 51.936 168.227 44.512C167.459 37.0027 167.63 27.488 168.739 15.968C168.824 15.2853 169.123 14.688 169.635 14.176C170.232 13.664 170.915 13.4507 171.683 13.536L180.259 14.176ZM225.632 21.6C224.779 21.6853 224.053 21.472 223.456 20.96C222.859 20.448 222.56 19.7653 222.56 18.912V15.968C222.56 15.2853 222.816 14.688 223.328 14.176C223.925 13.5787 224.565 13.28 225.248 13.28L232.032 13.152C232.885 13.152 233.312 12.7253 233.312 11.872L233.184 6.752C233.184 5.984 233.397 5.344 233.824 4.83199C234.336 4.31999 234.933 4.02133 235.616 3.936L247.264 2.91199C248.032 2.82666 248.715 3.08266 249.312 3.68C249.909 4.27733 250.208 4.91733 250.208 5.6V11.104C250.208 12.2133 250.677 12.6827 251.616 12.512L262.368 12.256C263.136 12.256 263.776 12.512 264.288 13.024C264.8 13.536 265.056 14.176 265.056 14.944V16.736C265.056 18.3573 264.245 19.2533 262.624 19.424L251.488 20.192C250.635 20.192 250.208 20.6187 250.208 21.472V72.8C250.208 73.4827 249.909 74.1227 249.312 74.72C248.8 75.232 248.203 75.488 247.52 75.488H238.432C237.749 75.488 237.109 75.232 236.512 74.72C236 74.1227 235.744 73.4827 235.744 72.8L233.824 22.624C233.824 22.1973 233.653 21.856 233.312 21.6C233.056 21.344 232.715 21.216 232.288 21.216L225.632 21.6Z" fill="#F4711F"/>
</svg>
