<svg width="365" height="77" viewBox="0 0 365 77" fill="none" xmlns="http://www.w3.org/2000/svg">
<path d="M36.424 30.688C35.7413 30.8587 35.1013 30.7307 34.504 30.304C33.9067 29.792 33.5653 29.1947 33.48 28.512C33.3093 26.976 33.096 25.056 32.84 22.752C32.6693 20.448 32.2853 18.272 31.688 16.224C31.176 14.0907 30.3653 12.3413 29.256 10.976C28.232 9.52533 26.7387 8.928 24.776 9.184C23.0693 9.43999 21.704 11.104 20.68 14.176C19.656 17.1627 18.9733 20.8747 18.632 25.312C18.2907 29.664 18.2907 34.3573 18.632 39.392C18.9733 44.4267 19.6133 49.12 20.552 53.472C21.4907 57.7387 22.7707 61.28 24.392 64.096C26.0133 66.8267 27.8907 68.1067 30.024 67.936C32.328 67.7653 33.992 66.8693 35.016 65.248C36.1253 63.6267 36.8507 61.7493 37.192 59.616C37.6187 57.3973 37.7893 55.1787 37.704 52.96C37.6187 50.656 37.5333 48.7787 37.448 47.328C37.3627 46.56 37.5333 45.92 37.96 45.408C38.472 44.896 39.112 44.5547 39.88 44.384L48.2 43.872C48.968 43.7013 49.6507 43.9147 50.248 44.512C50.8453 45.024 51.144 45.6213 51.144 46.304C51.2293 48.096 51.144 50.4427 50.888 53.344C50.7173 56.2453 50.0347 59.1893 48.84 62.176C47.7307 65.0773 45.9387 67.7653 43.464 70.24C40.9893 72.7147 37.5333 74.3787 33.096 75.232C32.2427 75.4027 31.432 75.5307 30.664 75.616C29.896 75.7013 29.128 75.744 28.36 75.744C24.1787 75.744 20.424 74.72 17.096 72.672C13.8533 70.5387 11.08 67.7653 8.776 64.352C6.472 60.8533 4.63733 56.928 3.272 52.576C1.992 48.1387 1.224 43.616 0.968 39.008C0.712 34.3147 0.968 29.7493 1.736 25.312C2.58933 20.8747 3.95467 16.9067 5.832 13.408C7.70933 9.824 10.1413 6.92266 13.128 4.70399C16.2 2.39999 19.8267 1.16266 24.008 0.991997C29.128 0.735995 33.2667 1.58933 36.424 3.55199C39.5813 5.51466 42.0133 7.94666 43.72 10.848C45.512 13.7493 46.7493 16.736 47.432 19.808C48.1147 22.7947 48.4987 25.2267 48.584 27.104C48.6693 27.7867 48.4987 28.4267 48.072 29.024C47.6453 29.536 47.048 29.8347 46.28 29.92L36.424 30.688ZM63.701 71.392C63.0183 71.392 62.421 71.136 61.909 70.624C61.397 70.112 61.141 69.472 61.141 68.704L60.885 15.2C60.885 14.432 61.141 13.792 61.653 13.28C62.165 12.768 62.7623 12.512 63.445 12.512L71.381 12.384C72.149 12.2987 72.789 12.512 73.301 13.024C73.813 13.536 74.069 14.176 74.069 14.944L75.861 68.448C75.861 69.216 75.605 69.856 75.093 70.368C74.6663 70.88 74.069 71.136 73.301 71.136L63.701 71.392ZM86.007 21.6C85.1537 21.6853 84.4283 21.472 83.831 20.96C83.2337 20.448 82.935 19.7653 82.935 18.912V15.968C82.935 15.2853 83.191 14.688 83.703 14.176C84.3003 13.5787 84.9403 13.28 85.623 13.28L92.407 13.152C93.2603 13.152 93.687 12.7253 93.687 11.872L93.559 6.752C93.559 5.984 93.7723 5.344 94.199 4.83199C94.711 4.31999 95.3083 4.02133 95.991 3.936L107.639 2.91199C108.407 2.82666 109.09 3.08266 109.687 3.68C110.284 4.27733 110.583 4.91733 110.583 5.6V11.104C110.583 12.2133 111.052 12.6827 111.991 12.512L122.743 12.256C123.511 12.256 124.151 12.512 124.663 13.024C125.175 13.536 125.431 14.176 125.431 14.944V16.736C125.431 18.3573 124.62 19.2533 122.999 19.424L111.863 20.192C111.01 20.192 110.583 20.6187 110.583 21.472V72.8C110.583 73.4827 110.284 74.1227 109.687 74.72C109.175 75.232 108.578 75.488 107.895 75.488H98.807C98.1243 75.488 97.4843 75.232 96.887 74.72C96.375 74.1227 96.119 73.4827 96.119 72.8L94.199 22.624C94.199 22.1973 94.0283 21.856 93.687 21.6C93.431 21.344 93.0897 21.216 92.663 21.216L86.007 21.6ZM152.734 7.392C159.134 7.56266 163.998 9.312 167.326 12.64C170.654 15.8827 173.001 20.4053 174.366 26.208C175.731 32.0107 176.286 39.008 176.03 47.2C175.859 55.3067 175.39 64.352 174.622 74.336C174.622 75.104 174.323 75.7013 173.726 76.128C173.129 76.64 172.489 76.8533 171.806 76.768L162.078 76.128C160.371 75.9573 159.518 75.0187 159.518 73.312C159.603 71.9467 159.646 70.5813 159.646 69.216C159.731 67.8507 159.817 66.4853 159.902 65.12C159.902 64.6933 159.689 64.352 159.262 64.096C158.921 63.7547 158.537 63.712 158.11 63.968C154.526 65.504 150.985 66.272 147.486 66.272C143.475 66.272 139.977 65.248 136.99 63.2C134.003 61.152 132.169 58.1653 131.486 54.24C130.803 50.2293 131.187 46.7733 132.638 43.872C134.174 40.9707 136.35 38.624 139.166 36.832C141.982 34.9547 145.139 33.6747 148.638 32.992C152.222 32.224 155.721 32.0533 159.134 32.48C159.561 32.5653 159.902 32.48 160.158 32.224C160.414 31.8827 160.542 31.4987 160.542 31.072C160.201 26.208 159.39 22.368 158.11 19.552C156.915 16.6507 154.91 15.1147 152.094 14.944C150.643 14.8587 149.406 15.2427 148.382 16.096C147.358 16.9493 146.505 18.016 145.822 19.296C145.139 20.576 144.542 21.9413 144.03 23.392C143.603 24.8427 143.262 26.1653 143.006 27.36C142.835 28.0427 142.451 28.5973 141.854 29.024C141.342 29.4507 140.745 29.5787 140.062 29.408L132.894 28.384C132.126 28.2987 131.529 27.9573 131.102 27.36C130.675 26.6773 130.547 25.952 130.718 25.184C130.974 23.7333 131.486 21.984 132.254 19.936C133.107 17.8027 134.345 15.7973 135.966 13.92C137.673 12.0427 139.849 10.464 142.494 9.184C145.225 7.81866 148.638 7.22133 152.734 7.392ZM141.854 52.96C142.195 54.3253 142.921 55.392 144.03 56.16C145.225 56.8427 146.633 57.184 148.254 57.184C149.961 57.184 151.753 56.8 153.63 56.032C155.593 55.264 157.555 54.0693 159.518 52.448C160.115 52.1067 160.414 51.5093 160.414 50.656C160.499 49.5467 160.542 48.48 160.542 47.456C160.542 46.432 160.585 45.408 160.67 44.384C160.67 43.36 160.243 42.6347 159.39 42.208C158.537 41.696 157.598 41.3547 156.574 41.184C155.55 41.0133 154.611 40.928 153.758 40.928C152.051 40.928 150.387 41.2267 148.766 41.824C147.145 42.336 145.737 43.104 144.542 44.128C143.433 45.152 142.579 46.432 141.982 47.968C141.47 49.4187 141.427 51.0827 141.854 52.96ZM184.382 21.6C183.529 21.6853 182.803 21.472 182.206 20.96C181.609 20.448 181.31 19.7653 181.31 18.912V15.968C181.31 15.2853 181.566 14.688 182.078 14.176C182.675 13.5787 183.315 13.28 183.998 13.28L190.782 13.152C191.635 13.152 192.062 12.7253 192.062 11.872L191.934 6.752C191.934 5.984 192.147 5.344 192.574 4.83199C193.086 4.31999 193.683 4.02133 194.366 3.936L206.014 2.91199C206.782 2.82666 207.465 3.08266 208.062 3.68C208.659 4.27733 208.958 4.91733 208.958 5.6V11.104C208.958 12.2133 209.427 12.6827 210.366 12.512L221.118 12.256C221.886 12.256 222.526 12.512 223.038 13.024C223.55 13.536 223.806 14.176 223.806 14.944V16.736C223.806 18.3573 222.995 19.2533 221.374 19.424L210.238 20.192C209.385 20.192 208.958 20.6187 208.958 21.472V72.8C208.958 73.4827 208.659 74.1227 208.062 74.72C207.55 75.232 206.953 75.488 206.27 75.488H197.182C196.499 75.488 195.859 75.232 195.262 74.72C194.75 74.1227 194.494 73.4827 194.494 72.8L192.574 22.624C192.574 22.1973 192.403 21.856 192.062 21.6C191.806 21.344 191.465 21.216 191.038 21.216L184.382 21.6ZM234.951 71.392C234.268 71.392 233.671 71.136 233.159 70.624C232.647 70.112 232.391 69.472 232.391 68.704L232.135 15.2C232.135 14.432 232.391 13.792 232.903 13.28C233.415 12.768 234.012 12.512 234.695 12.512L242.631 12.384C243.399 12.2987 244.039 12.512 244.551 13.024C245.063 13.536 245.319 14.176 245.319 14.944L247.111 68.448C247.111 69.216 246.855 69.856 246.343 70.368C245.916 70.88 245.319 71.136 244.551 71.136L234.951 71.392ZM275.674 16.096C279.77 15.4133 283.354 15.6267 286.426 16.736C289.583 17.76 292.271 19.296 294.49 21.344C296.709 23.392 298.415 25.7813 299.61 28.512C300.89 31.2427 301.701 33.9733 302.042 36.704C302.469 39.6053 302.426 42.592 301.914 45.664C301.402 48.6507 300.378 51.424 298.842 53.984C297.306 56.544 295.173 58.72 292.442 60.512C289.711 62.304 286.298 63.4133 282.202 63.84C278.874 64.1813 275.802 63.9253 272.986 63.072C270.17 62.1333 267.653 60.8107 265.434 59.104C263.301 57.3973 261.509 55.3067 260.058 52.832C258.607 50.3573 257.541 47.712 256.858 44.896C256.261 41.9093 256.133 38.88 256.474 35.808C256.815 32.6507 257.711 29.7493 259.162 27.104C260.613 24.3733 262.703 22.0267 265.434 20.064C268.165 18.016 271.578 16.6933 275.674 16.096ZM277.466 22.112C276.015 22.368 274.821 23.136 273.882 24.416C273.029 25.6107 272.389 27.1467 271.962 29.024C271.621 30.816 271.45 32.8213 271.45 35.04C271.45 37.2587 271.578 39.4347 271.834 41.568C272.09 43.5307 272.431 45.4507 272.858 47.328C273.285 49.12 273.882 50.6987 274.65 52.064C275.418 53.4293 276.357 54.496 277.466 55.264C278.575 56.032 279.898 56.3733 281.434 56.288C283.226 56.1173 284.634 55.4773 285.658 54.368C286.682 53.1733 287.45 51.7227 287.962 50.016C288.474 48.224 288.73 46.2187 288.73 44C288.73 41.7813 288.559 39.6053 288.218 37.472C287.962 35.424 287.535 33.4613 286.938 31.584C286.426 29.6213 285.743 27.9147 284.89 26.464C284.037 25.0133 283.013 23.904 281.818 23.136C280.623 22.2827 279.173 21.9413 277.466 22.112ZM323.786 9.952L324.042 11.872C324.042 12.384 324.298 12.768 324.81 13.024C325.322 13.1947 325.791 13.1093 326.218 12.768C329.461 9.52533 333.685 7.904 338.89 7.904C343.413 7.904 347.167 8.928 350.154 10.976C353.141 13.024 355.573 15.7547 357.45 19.168C359.327 22.496 360.735 26.336 361.674 30.688C362.613 34.9547 363.253 39.392 363.594 44C364.021 48.608 364.234 53.216 364.234 57.824C364.319 62.432 364.405 66.656 364.49 70.496C364.49 72.2027 363.637 73.1413 361.93 73.312L351.69 74.08C350.922 74.08 350.239 73.8667 349.642 73.44C349.13 72.928 348.874 72.288 348.874 71.52C348.618 63.4987 348.362 56.0747 348.106 49.248C347.85 42.336 347.338 36.4053 346.57 31.456C345.887 26.4213 344.821 22.496 343.37 19.68C342.005 16.864 340.042 15.456 337.482 15.456C334.922 15.456 333.002 16.9493 331.722 19.936C330.442 22.9227 329.546 27.0187 329.034 32.224C328.522 37.344 328.223 43.4453 328.138 50.528C328.138 57.5253 328.095 65.12 328.01 73.312C328.01 74.08 327.754 74.72 327.242 75.232C326.815 75.744 326.218 76 325.45 76L314.314 76.512C313.546 76.5973 312.906 76.384 312.394 75.872C311.882 75.36 311.583 74.72 311.498 73.952L310.09 10.464C310.09 9.78133 310.346 9.184 310.858 8.672C311.455 8.07466 312.095 7.73333 312.778 7.64799L320.97 7.392C321.738 7.30667 322.378 7.52 322.89 8.032C323.402 8.544 323.701 9.184 323.786 9.952Z" fill="#F4711F"/>
</svg>
