<svg width="594" height="79" viewBox="0 0 594 79" fill="none" xmlns="http://www.w3.org/2000/svg">
<path d="M36.424 30.688C35.7413 30.8587 35.1013 30.7307 34.504 30.304C33.9067 29.792 33.5653 29.1947 33.48 28.512C33.3093 26.976 33.096 25.056 32.84 22.752C32.6693 20.448 32.2853 18.272 31.688 16.224C31.176 14.0907 30.3653 12.3413 29.256 10.976C28.232 9.52533 26.7387 8.928 24.776 9.184C23.0693 9.43999 21.704 11.104 20.68 14.176C19.656 17.1627 18.9733 20.8747 18.632 25.312C18.2907 29.664 18.2907 34.3573 18.632 39.392C18.9733 44.4267 19.6133 49.12 20.552 53.472C21.4907 57.7387 22.7707 61.28 24.392 64.096C26.0133 66.8267 27.8907 68.1067 30.024 67.936C32.328 67.7653 33.992 66.8693 35.016 65.248C36.1253 63.6267 36.8507 61.7493 37.192 59.616C37.6187 57.3973 37.7893 55.1787 37.704 52.96C37.6187 50.656 37.5333 48.7787 37.448 47.328C37.3627 46.56 37.5333 45.92 37.96 45.408C38.472 44.896 39.112 44.5547 39.88 44.384L48.2 43.872C48.968 43.7013 49.6507 43.9147 50.248 44.512C50.8453 45.024 51.144 45.6213 51.144 46.304C51.2293 48.096 51.144 50.4427 50.888 53.344C50.7173 56.2453 50.0347 59.1893 48.84 62.176C47.7307 65.0773 45.9387 67.7653 43.464 70.24C40.9893 72.7147 37.5333 74.3787 33.096 75.232C32.2427 75.4027 31.432 75.5307 30.664 75.616C29.896 75.7013 29.128 75.744 28.36 75.744C24.1787 75.744 20.424 74.72 17.096 72.672C13.8533 70.5387 11.08 67.7653 8.776 64.352C6.472 60.8533 4.63733 56.928 3.272 52.576C1.992 48.1387 1.224 43.616 0.968 39.008C0.712 34.3147 0.968 29.7493 1.736 25.312C2.58933 20.8747 3.95467 16.9067 5.832 13.408C7.70933 9.824 10.1413 6.92266 13.128 4.70399C16.2 2.39999 19.8267 1.16266 24.008 0.991997C29.128 0.735995 33.2667 1.58933 36.424 3.55199C39.5813 5.51466 42.0133 7.94666 43.72 10.848C45.512 13.7493 46.7493 16.736 47.432 19.808C48.1147 22.7947 48.4987 25.2267 48.584 27.104C48.6693 27.7867 48.4987 28.4267 48.072 29.024C47.6453 29.536 47.048 29.8347 46.28 29.92L36.424 30.688ZM78.549 16.096C82.645 15.4133 86.229 15.6267 89.301 16.736C92.4583 17.76 95.1463 19.296 97.365 21.344C99.5837 23.392 101.29 25.7813 102.485 28.512C103.765 31.2427 104.576 33.9733 104.917 36.704C105.344 39.6053 105.301 42.592 104.789 45.664C104.277 48.6507 103.253 51.424 101.717 53.984C100.181 56.544 98.0477 58.72 95.317 60.512C92.5863 62.304 89.173 63.4133 85.077 63.84C81.749 64.1813 78.677 63.9253 75.861 63.072C73.045 62.1333 70.5277 60.8107 68.309 59.104C66.1757 57.3973 64.3837 55.3067 62.933 52.832C61.4823 50.3573 60.4157 47.712 59.733 44.896C59.1357 41.9093 59.0077 38.88 59.349 35.808C59.6903 32.6507 60.5863 29.7493 62.037 27.104C63.4877 24.3733 65.5783 22.0267 68.309 20.064C71.0397 18.016 74.453 16.6933 78.549 16.096ZM80.341 22.112C78.8903 22.368 77.6957 23.136 76.757 24.416C75.9037 25.6107 75.2637 27.1467 74.837 29.024C74.4957 30.816 74.325 32.8213 74.325 35.04C74.325 37.2587 74.453 39.4347 74.709 41.568C74.965 43.5307 75.3063 45.4507 75.733 47.328C76.1597 49.12 76.757 50.6987 77.525 52.064C78.293 53.4293 79.2317 54.496 80.341 55.264C81.4503 56.032 82.773 56.3733 84.309 56.288C86.101 56.1173 87.509 55.4773 88.533 54.368C89.557 53.1733 90.325 51.7227 90.837 50.016C91.349 48.224 91.605 46.2187 91.605 44C91.605 41.7813 91.4343 39.6053 91.093 37.472C90.837 35.424 90.4103 33.4613 89.813 31.584C89.301 29.6213 88.6183 27.9147 87.765 26.464C86.9117 25.0133 85.8877 23.904 84.693 23.136C83.4983 22.2827 82.0477 21.9413 80.341 22.112ZM126.661 9.952L126.917 11.872C126.917 12.384 127.173 12.768 127.685 13.024C128.197 13.1947 128.666 13.1093 129.093 12.768C132.336 9.52533 136.56 7.904 141.765 7.904C146.288 7.904 150.042 8.928 153.029 10.976C156.016 13.024 158.448 15.7547 160.325 19.168C162.202 22.496 163.61 26.336 164.549 30.688C165.488 34.9547 166.128 39.392 166.469 44C166.896 48.608 167.109 53.216 167.109 57.824C167.194 62.432 167.28 66.656 167.365 70.496C167.365 72.2027 166.512 73.1413 164.805 73.312L154.565 74.08C153.797 74.08 153.114 73.8667 152.517 73.44C152.005 72.928 151.749 72.288 151.749 71.52C151.493 63.4987 151.237 56.0747 150.981 49.248C150.725 42.336 150.213 36.4053 149.445 31.456C148.762 26.4213 147.696 22.496 146.245 19.68C144.88 16.864 142.917 15.456 140.357 15.456C137.797 15.456 135.877 16.9493 134.597 19.936C133.317 22.9227 132.421 27.0187 131.909 32.224C131.397 37.344 131.098 43.4453 131.013 50.528C131.013 57.5253 130.97 65.12 130.885 73.312C130.885 74.08 130.629 74.72 130.117 75.232C129.69 75.744 129.093 76 128.325 76L117.189 76.512C116.421 76.5973 115.781 76.384 115.269 75.872C114.757 75.36 114.458 74.72 114.373 73.952L112.965 10.464C112.965 9.78133 113.221 9.184 113.733 8.672C114.33 8.07466 114.97 7.73333 115.653 7.64799L123.845 7.392C124.613 7.30667 125.253 7.52 125.765 8.032C126.277 8.544 126.576 9.184 126.661 9.952ZM173.132 21.6C172.279 21.6853 171.553 21.472 170.956 20.96C170.359 20.448 170.06 19.7653 170.06 18.912V15.968C170.06 15.2853 170.316 14.688 170.828 14.176C171.425 13.5787 172.065 13.28 172.748 13.28L179.532 13.152C180.385 13.152 180.812 12.7253 180.812 11.872L180.684 6.752C180.684 5.984 180.897 5.344 181.324 4.83199C181.836 4.31999 182.433 4.02133 183.116 3.936L194.764 2.91199C195.532 2.82666 196.215 3.08266 196.812 3.68C197.409 4.27733 197.708 4.91733 197.708 5.6V11.104C197.708 12.2133 198.177 12.6827 199.116 12.512L209.868 12.256C210.636 12.256 211.276 12.512 211.788 13.024C212.3 13.536 212.556 14.176 212.556 14.944V16.736C212.556 18.3573 211.745 19.2533 210.124 19.424L198.988 20.192C198.135 20.192 197.708 20.6187 197.708 21.472V72.8C197.708 73.4827 197.409 74.1227 196.812 74.72C196.3 75.232 195.703 75.488 195.02 75.488H185.932C185.249 75.488 184.609 75.232 184.012 74.72C183.5 74.1227 183.244 73.4827 183.244 72.8L181.324 22.624C181.324 22.1973 181.153 21.856 180.812 21.6C180.556 21.344 180.215 21.216 179.788 21.216L173.132 21.6ZM232.021 10.08L232.149 12.256C232.234 12.768 232.49 13.152 232.917 13.408C233.429 13.5787 233.898 13.4933 234.325 13.152C237.653 10.6773 241.536 9.78133 245.973 10.464C248.874 10.8053 251.136 11.744 252.757 13.28C254.464 14.7307 255.701 16.4373 256.469 18.4C257.237 20.2773 257.706 22.1973 257.877 24.16C258.048 26.1227 258.09 27.8293 258.005 29.28C258.005 30.1333 257.664 30.816 256.981 31.328C256.384 31.7547 255.701 31.9253 254.933 31.84L250.965 31.2C250.282 31.1147 249.685 30.816 249.173 30.304C248.746 29.7067 248.576 29.0667 248.661 28.384C248.746 27.4453 248.746 26.464 248.661 25.44C248.661 24.3307 248.533 23.264 248.277 22.24C248.021 21.216 247.594 20.3627 246.997 19.68C246.4 18.912 245.589 18.4853 244.565 18.4C242.346 18.0587 240.597 18.8267 239.317 20.704C238.122 22.5813 237.269 25.7387 236.757 30.176C236.33 34.528 236.16 40.2453 236.245 47.328C236.416 54.4107 236.757 62.944 237.269 72.928C237.269 73.6107 237.013 74.2507 236.501 74.848C236.074 75.4453 235.477 75.744 234.709 75.744L223.957 76.128C223.274 76.128 222.634 75.9147 222.037 75.488C221.525 74.976 221.226 74.336 221.141 73.568L219.093 10.848C218.922 10.1653 219.093 9.568 219.605 9.056C220.117 8.45866 220.714 8.11733 221.397 8.032L229.205 7.64799C229.973 7.56266 230.613 7.776 231.125 8.28799C231.722 8.71466 232.021 9.31199 232.021 10.08ZM269.326 71.392C268.643 71.392 268.046 71.136 267.534 70.624C267.022 70.112 266.766 69.472 266.766 68.704L266.51 15.2C266.51 14.432 266.766 13.792 267.278 13.28C267.79 12.768 268.387 12.512 269.07 12.512L277.006 12.384C277.774 12.2987 278.414 12.512 278.926 13.024C279.438 13.536 279.694 14.176 279.694 14.944L281.486 68.448C281.486 69.216 281.23 69.856 280.718 70.368C280.291 70.88 279.694 71.136 278.926 71.136L269.326 71.392ZM290.593 14.944C290.422 14.2613 290.508 13.664 290.849 13.152C291.276 12.64 291.788 12.2987 292.385 12.128C294.774 11.4453 297.633 10.848 300.961 10.336C304.289 9.82399 307.745 9.56799 311.329 9.56799C314.657 9.56799 317.942 9.86666 321.185 10.464C324.513 10.976 327.542 11.9573 330.273 13.408C333.004 14.7733 335.308 16.608 337.185 18.912C339.062 21.1307 340.214 23.9893 340.641 27.488C341.324 32.864 340.726 37.1733 338.849 40.416C337.057 43.6587 334.54 46.2187 331.297 48.096C330.87 48.352 330.657 48.736 330.657 49.248C330.657 49.6747 330.87 50.0587 331.297 50.4C334.625 52.1067 336.63 54.752 337.313 58.336C337.654 60.7253 337.228 62.9867 336.033 65.12C334.838 67.168 332.705 68.96 329.633 70.496C326.561 72.032 322.465 73.2267 317.345 74.08C312.225 74.848 305.825 75.0613 298.145 74.72C297.462 74.72 296.865 74.5067 296.353 74.08C295.926 73.568 295.67 72.9707 295.585 72.288L290.593 14.944ZM327.201 29.28C326.774 25.0987 325.281 22.112 322.721 20.32C320.161 18.528 317.089 17.632 313.505 17.632C311.884 17.632 310.092 17.8453 308.129 18.272C307.19 18.4427 306.806 18.8693 306.977 19.552L308.513 44.64C308.513 45.5787 308.982 45.9627 309.921 45.792C316.577 44.6827 321.228 42.7627 323.873 40.032C326.518 37.3013 327.628 33.7173 327.201 29.28ZM309.793 65.632C309.793 66.4853 310.262 66.912 311.201 66.912C313.078 66.912 314.828 66.8267 316.449 66.656C318.156 66.4 319.606 65.9733 320.801 65.376C322.081 64.6933 323.062 63.8827 323.745 62.944C324.428 61.92 324.726 60.64 324.641 59.104C324.556 54.752 319.777 52.832 310.305 53.344C309.537 53.344 309.153 53.8133 309.153 54.752L309.793 65.632ZM360.009 14.176C360.692 14.3467 361.246 14.688 361.673 15.2C362.185 15.6267 362.441 16.1813 362.441 16.864C362.441 23.008 362.441 28.9387 362.441 34.656C362.441 40.3733 362.612 45.4507 362.953 49.888C363.38 54.3253 364.062 57.9093 365.001 60.64C366.025 63.2853 367.476 64.6507 369.353 64.736C371.657 64.8213 373.406 63.3707 374.601 60.384C375.796 57.3973 376.606 53.472 377.033 48.608C377.46 43.6587 377.673 38.0693 377.673 31.84C377.673 25.6107 377.588 19.2533 377.417 12.768C377.332 12 377.545 11.36 378.057 10.848C378.569 10.336 379.166 10.0373 379.849 9.952L389.833 9.312C390.516 9.22666 391.156 9.44 391.753 9.952C392.35 10.3787 392.692 10.976 392.777 11.744C392.948 13.536 393.118 16.0533 393.289 19.296C393.545 22.4533 393.844 25.9947 394.185 29.92C394.526 33.76 394.868 37.856 395.209 42.208C395.55 46.4747 395.892 50.5707 396.233 54.496C396.574 58.336 396.873 61.8773 397.129 65.12C397.385 68.2773 397.598 70.752 397.769 72.544C397.854 73.2267 397.641 73.8667 397.129 74.464C396.617 74.976 396.02 75.3173 395.337 75.488L391.881 75.744C390.26 75.9147 389.321 75.1467 389.065 73.44C388.809 72.2453 388.51 70.7947 388.169 69.088C387.913 67.296 387.614 65.4187 387.273 63.456C387.188 62.8587 386.846 62.5173 386.249 62.432C385.652 62.2613 385.182 62.432 384.841 62.944C382.964 66.272 380.788 68.6613 378.313 70.112C375.838 71.5627 373.236 72.416 370.505 72.672C366.921 73.0133 363.55 72.416 360.393 70.88C357.236 69.344 354.59 66.4427 352.457 62.176C350.324 57.824 348.83 51.936 347.977 44.512C347.209 37.0027 347.38 27.488 348.489 15.968C348.574 15.2853 348.873 14.688 349.385 14.176C349.982 13.664 350.665 13.4507 351.433 13.536L360.009 14.176ZM405.382 21.6C404.529 21.6853 403.803 21.472 403.206 20.96C402.609 20.448 402.31 19.7653 402.31 18.912V15.968C402.31 15.2853 402.566 14.688 403.078 14.176C403.675 13.5787 404.315 13.28 404.998 13.28L411.782 13.152C412.635 13.152 413.062 12.7253 413.062 11.872L412.934 6.752C412.934 5.984 413.147 5.344 413.574 4.83199C414.086 4.31999 414.683 4.02133 415.366 3.936L427.014 2.91199C427.782 2.82666 428.465 3.08266 429.062 3.68C429.659 4.27733 429.958 4.91733 429.958 5.6V11.104C429.958 12.2133 430.427 12.6827 431.366 12.512L442.118 12.256C442.886 12.256 443.526 12.512 444.038 13.024C444.55 13.536 444.806 14.176 444.806 14.944V16.736C444.806 18.3573 443.995 19.2533 442.374 19.424L431.238 20.192C430.385 20.192 429.958 20.6187 429.958 21.472V72.8C429.958 73.4827 429.659 74.1227 429.062 74.72C428.55 75.232 427.953 75.488 427.27 75.488H418.182C417.499 75.488 416.859 75.232 416.262 74.72C415.75 74.1227 415.494 73.4827 415.494 72.8L413.574 22.624C413.574 22.1973 413.403 21.856 413.062 21.6C412.806 21.344 412.465 21.216 412.038 21.216L405.382 21.6ZM455.951 71.392C455.268 71.392 454.671 71.136 454.159 70.624C453.647 70.112 453.391 69.472 453.391 68.704L453.135 15.2C453.135 14.432 453.391 13.792 453.903 13.28C454.415 12.768 455.012 12.512 455.695 12.512L463.631 12.384C464.399 12.2987 465.039 12.512 465.551 13.024C466.063 13.536 466.319 14.176 466.319 14.944L468.111 68.448C468.111 69.216 467.855 69.856 467.343 70.368C466.916 70.88 466.319 71.136 465.551 71.136L455.951 71.392ZM492.036 9.952L492.292 11.872C492.292 12.384 492.548 12.768 493.06 13.024C493.572 13.1947 494.041 13.1093 494.468 12.768C497.711 9.52533 501.935 7.904 507.14 7.904C511.663 7.904 515.417 8.928 518.404 10.976C521.391 13.024 523.823 15.7547 525.7 19.168C527.577 22.496 528.985 26.336 529.924 30.688C530.863 34.9547 531.503 39.392 531.844 44C532.271 48.608 532.484 53.216 532.484 57.824C532.569 62.432 532.655 66.656 532.74 70.496C532.74 72.2027 531.887 73.1413 530.18 73.312L519.94 74.08C519.172 74.08 518.489 73.8667 517.892 73.44C517.38 72.928 517.124 72.288 517.124 71.52C516.868 63.4987 516.612 56.0747 516.356 49.248C516.1 42.336 515.588 36.4053 514.82 31.456C514.137 26.4213 513.071 22.496 511.62 19.68C510.255 16.864 508.292 15.456 505.732 15.456C503.172 15.456 501.252 16.9493 499.972 19.936C498.692 22.9227 497.796 27.0187 497.284 32.224C496.772 37.344 496.473 43.4453 496.388 50.528C496.388 57.5253 496.345 65.12 496.26 73.312C496.26 74.08 496.004 74.72 495.492 75.232C495.065 75.744 494.468 76 493.7 76L482.564 76.512C481.796 76.5973 481.156 76.384 480.644 75.872C480.132 75.36 479.833 74.72 479.748 73.952L478.34 10.464C478.34 9.78133 478.596 9.184 479.108 8.672C479.705 8.07466 480.345 7.73333 481.028 7.64799L489.22 7.392C489.988 7.30667 490.628 7.52 491.14 8.032C491.652 8.544 491.951 9.184 492.036 9.952ZM585.036 7.64799L587.084 8.8C587.937 9.31199 588.407 9.99466 588.492 10.848C588.577 11.7013 588.279 12.4267 587.596 13.024L587.212 13.536C586.785 13.9627 586.529 14.4747 586.444 15.072C586.359 15.6693 586.487 16.224 586.828 16.736C587.169 17.4187 587.468 18.1013 587.724 18.784C588.065 19.3813 588.321 20.0213 588.492 20.704C589.345 23.4347 589.431 25.8667 588.748 28C588.065 30.1333 586.871 32.0107 585.164 33.632C583.543 35.2533 581.537 36.6613 579.148 37.856C576.759 39.0507 574.241 40.1173 571.596 41.056C568.78 42.08 566.007 43.0187 563.276 43.872C560.545 44.64 558.071 45.408 555.852 46.176C553.719 46.944 552.012 47.7547 550.732 48.608C549.537 49.376 549.068 50.3147 549.324 51.424C549.409 51.936 550.092 52.192 551.372 52.192C552.567 52.192 554.145 51.9787 556.108 51.552C558.071 51.1253 560.247 50.6987 562.636 50.272C565.025 49.76 567.543 49.2907 570.188 48.864C572.833 48.4373 575.351 48.224 577.74 48.224C580.727 48.224 583.372 48.6507 585.676 49.504C587.98 50.3573 589.644 51.9787 590.668 54.368C592.289 57.696 592.503 60.8107 591.308 63.712C590.199 66.6133 588.279 69.1733 585.548 71.392C582.817 73.5253 579.575 75.1893 575.82 76.384C572.151 77.664 568.567 78.304 565.068 78.304C561.825 78.304 558.924 77.664 556.364 76.384C553.889 75.1893 552.183 73.2267 551.244 70.496C550.135 67.3387 550.177 64.224 551.372 61.152C551.543 60.64 551.457 60.2133 551.116 59.872C550.86 59.4453 550.476 59.2747 549.964 59.36C547.489 59.5307 545.313 59.3173 543.436 58.72C541.559 58.0373 540.321 56.5013 539.724 54.112C538.956 51.1253 539.34 48.6507 540.876 46.688C542.412 44.64 544.588 42.8907 547.404 41.44C547.831 41.2693 548.087 40.9707 548.172 40.544C548.257 40.032 548.129 39.648 547.788 39.392C546.593 38.368 545.484 37.1733 544.46 35.808C543.521 34.3573 542.924 32.7787 542.668 31.072C542.156 28.256 542.327 25.6533 543.18 23.264C544.119 20.8747 545.527 18.7413 547.404 16.864C549.281 14.9013 551.5 13.28 554.06 12C556.705 10.72 559.436 9.78133 562.252 9.184C564.556 8.672 566.817 8.416 569.036 8.416C572.279 8.416 575.308 8.928 578.124 9.952C578.721 10.1227 579.319 10.1227 579.916 9.952C580.513 9.69599 580.983 9.22666 581.324 8.544C581.836 7.69067 582.604 7.264 583.628 7.264C584.225 7.264 584.695 7.392 585.036 7.64799ZM564.3 15.712C561.569 16.48 559.735 17.888 558.796 19.936C557.857 21.984 557.601 24.1173 558.028 26.336C558.54 28.4693 559.564 30.3893 561.1 32.096C562.636 33.7173 564.513 34.528 566.732 34.528C567.671 34.528 568.695 34.3147 569.804 33.888C571.425 33.2053 572.663 32.224 573.516 30.944C574.455 29.664 575.009 28.256 575.18 26.72C575.351 25.184 575.223 23.648 574.796 22.112C574.369 20.576 573.644 19.2533 572.62 18.144C571.681 17.0347 570.487 16.224 569.036 15.712C567.671 15.2 566.092 15.2 564.3 15.712ZM573.004 69.6C574.625 69.0027 575.692 67.808 576.204 66.016C576.716 64.224 576.716 62.4747 576.204 60.768C575.692 59.0613 574.753 57.6533 573.388 56.544C572.023 55.4347 570.273 55.2213 568.14 55.904C566.092 56.5867 564.812 57.824 564.3 59.616C563.873 61.408 564.001 63.1573 564.684 64.864C565.367 66.5707 566.476 67.9787 568.012 69.088C569.548 70.112 571.212 70.2827 573.004 69.6Z" fill="#F4711F"/>
</svg>
