<svg width="728" height="79" viewBox="0 0 728 79" fill="none" xmlns="http://www.w3.org/2000/svg">
<path d="M38.088 21.6C37.32 21.6853 36.6373 21.5573 36.04 21.216C35.528 20.7893 35.1867 20.192 35.016 19.424C34.248 15.6693 33.1387 12.6827 31.688 10.464C30.2373 8.24533 28.36 7.26399 26.056 7.52C24.776 7.60533 23.5813 8.24533 22.472 9.43999C21.3627 10.6347 20.424 12.4693 19.656 14.944C18.9733 17.3333 18.504 20.448 18.248 24.288C18.0773 28.0427 18.1627 32.608 18.504 37.984C18.76 41.7387 19.1867 45.408 19.784 48.992C20.3813 52.576 21.1493 55.776 22.088 58.592C23.112 61.408 24.3493 63.6693 25.8 65.376C27.2507 66.9973 28.9573 67.7227 30.92 67.552C32.6267 67.3813 33.992 66.7413 35.016 65.632C36.04 64.5227 36.808 63.1147 37.32 61.408C37.9173 59.7013 38.2587 57.824 38.344 55.776C38.5147 53.6427 38.5573 51.5093 38.472 49.376C38.472 47.2427 38.344 45.1947 38.088 43.232C37.9173 41.184 37.7467 39.4347 37.576 37.984C37.4053 37.1307 36.8507 36.7893 35.912 36.96L27.336 38.368C26.6533 38.5387 26.0133 38.4107 25.416 37.984C24.8187 37.5573 24.4347 36.96 24.264 36.192L24.008 34.528C23.8373 33.8453 23.9653 33.2053 24.392 32.608C24.8187 32.0107 25.416 31.6267 26.184 31.456L47.304 27.488C48.072 27.3173 48.7547 27.488 49.352 28C50.0347 28.4267 50.4613 28.9813 50.632 29.664C50.888 31.2853 51.144 33.4613 51.4 36.192C51.7413 38.9227 51.8693 41.9093 51.784 45.152C51.784 48.3093 51.4853 51.552 50.888 54.88C50.376 58.1227 49.3947 61.152 47.944 63.968C46.4933 66.784 44.488 69.216 41.928 71.264C39.4533 73.2267 36.2107 74.464 32.2 74.976C27.6773 75.5733 23.624 75.0187 20.04 73.312C16.456 71.6053 13.3413 69.1307 10.696 65.888C8.136 62.6453 6.04533 58.848 4.424 54.496C2.80267 50.144 1.736 45.664 1.224 41.056C0.712 36.3627 0.754667 31.712 1.352 27.104C1.94933 22.496 3.10133 18.3573 4.808 14.688C6.6 10.9333 8.98933 7.86133 11.976 5.472C14.9627 2.99733 18.5467 1.58933 22.728 1.24799C26.824 0.906665 30.28 1.16267 33.096 2.016C35.912 2.784 38.216 3.97867 40.008 5.6C41.8853 7.22133 43.336 9.09866 44.36 11.232C45.384 13.28 46.1093 15.4133 46.536 17.632C46.7067 18.3147 46.536 18.9973 46.024 19.68C45.5973 20.2773 45 20.6187 44.232 20.704L38.088 21.6ZM103.622 52.192C104.305 52.2773 104.859 52.576 105.286 53.088C105.713 53.6 105.926 54.1973 105.926 54.88C105.926 56.2453 105.755 57.9947 105.414 60.128C105.073 62.176 104.347 64.224 103.238 66.272C102.129 68.32 100.507 70.1547 98.374 71.776C96.326 73.3973 93.51 74.464 89.926 74.976C85.318 75.5733 81.222 75.1893 77.638 73.824C74.1393 72.3733 71.11 70.24 68.55 67.424C66.0753 64.608 64.1127 61.3227 62.662 57.568C61.2113 53.728 60.2727 49.76 59.846 45.664C59.4193 41.4827 59.5047 37.3867 60.102 33.376C60.6993 29.28 61.8087 25.568 63.43 22.24C65.0513 18.8267 67.142 16.0107 69.702 13.792C72.3473 11.488 75.462 10.08 79.046 9.56799C82.886 9.05599 86.1713 9.26933 88.902 10.208C91.6327 11.0613 93.9367 12.4267 95.814 14.304C97.6913 16.096 99.1847 18.1867 100.294 20.576C101.403 22.9653 102.257 25.3973 102.854 27.872C103.451 30.2613 103.878 32.5653 104.134 34.784C104.39 36.9173 104.518 38.6667 104.518 40.032C104.518 40.7147 104.262 41.312 103.75 41.824C103.323 42.336 102.769 42.6347 102.086 42.72L79.43 45.92C78.662 46.0053 78.022 46.3893 77.51 47.072C77.0833 47.6693 76.9553 48.3093 77.126 48.992C77.2967 51.4667 77.6807 53.8133 78.278 56.032C78.8753 58.1653 79.6007 60.0853 80.454 61.792C81.3927 63.4133 82.4593 64.6933 83.654 65.632C84.934 66.5707 86.2993 67.04 87.75 67.04C89.4567 67.04 90.8647 66.5707 91.974 65.632C93.1687 64.6933 94.1073 63.5413 94.79 62.176C95.558 60.8107 96.1127 59.4027 96.454 57.952C96.8807 56.5013 97.1793 55.264 97.35 54.24C97.5207 53.5573 97.862 53.0027 98.374 52.576C98.886 52.064 99.4833 51.8507 100.166 51.936L103.622 52.192ZM81.094 17.376C79.9847 17.632 79.046 18.272 78.278 19.296C77.51 20.32 76.87 21.6427 76.358 23.264C75.9313 24.8853 75.6753 26.72 75.59 28.768C75.5047 30.816 75.59 32.992 75.846 35.296C76.0167 36.1493 76.3153 36.832 76.742 37.344C77.254 37.856 77.9367 38.0693 78.79 37.984L88.902 36.832C89.67 36.7467 90.2673 36.448 90.694 35.936C91.206 35.3387 91.4193 34.6987 91.334 34.016C91.2487 32.5653 90.9927 30.8587 90.566 28.896C90.2247 26.848 89.67 24.928 88.902 23.136C88.134 21.2587 87.11 19.7653 85.83 18.656C84.55 17.4613 82.9713 17.0347 81.094 17.376ZM113.632 21.6C112.779 21.6853 112.053 21.472 111.456 20.96C110.859 20.448 110.56 19.7653 110.56 18.912V15.968C110.56 15.2853 110.816 14.688 111.328 14.176C111.925 13.5787 112.565 13.28 113.248 13.28L120.032 13.152C120.885 13.152 121.312 12.7253 121.312 11.872L121.184 6.752C121.184 5.984 121.397 5.344 121.824 4.83199C122.336 4.31999 122.933 4.02133 123.616 3.936L135.264 2.91199C136.032 2.82666 136.715 3.08266 137.312 3.68C137.909 4.27733 138.208 4.91733 138.208 5.6V11.104C138.208 12.2133 138.677 12.6827 139.616 12.512L150.368 12.256C151.136 12.256 151.776 12.512 152.288 13.024C152.8 13.536 153.056 14.176 153.056 14.944V16.736C153.056 18.3573 152.245 19.2533 150.624 19.424L139.488 20.192C138.635 20.192 138.208 20.6187 138.208 21.472V72.8C138.208 73.4827 137.909 74.1227 137.312 74.72C136.8 75.232 136.203 75.488 135.52 75.488H126.432C125.749 75.488 125.109 75.232 124.512 74.72C124 74.1227 123.744 73.4827 123.744 72.8L121.824 22.624C121.824 22.1973 121.653 21.856 121.312 21.6C121.056 21.344 120.715 21.216 120.288 21.216L113.632 21.6ZM161.257 21.6C160.404 21.6853 159.678 21.472 159.081 20.96C158.484 20.448 158.185 19.7653 158.185 18.912V15.968C158.185 15.2853 158.441 14.688 158.953 14.176C159.55 13.5787 160.19 13.28 160.873 13.28L167.657 13.152C168.51 13.152 168.937 12.7253 168.937 11.872L168.809 6.752C168.809 5.984 169.022 5.344 169.449 4.83199C169.961 4.31999 170.558 4.02133 171.241 3.936L182.889 2.91199C183.657 2.82666 184.34 3.08266 184.937 3.68C185.534 4.27733 185.833 4.91733 185.833 5.6V11.104C185.833 12.2133 186.302 12.6827 187.241 12.512L197.993 12.256C198.761 12.256 199.401 12.512 199.913 13.024C200.425 13.536 200.681 14.176 200.681 14.944V16.736C200.681 18.3573 199.87 19.2533 198.249 19.424L187.113 20.192C186.26 20.192 185.833 20.6187 185.833 21.472V72.8C185.833 73.4827 185.534 74.1227 184.937 74.72C184.425 75.232 183.828 75.488 183.145 75.488H174.057C173.374 75.488 172.734 75.232 172.137 74.72C171.625 74.1227 171.369 73.4827 171.369 72.8L169.449 22.624C169.449 22.1973 169.278 21.856 168.937 21.6C168.681 21.344 168.34 21.216 167.913 21.216L161.257 21.6ZM211.826 71.392C211.143 71.392 210.546 71.136 210.034 70.624C209.522 70.112 209.266 69.472 209.266 68.704L209.01 15.2C209.01 14.432 209.266 13.792 209.778 13.28C210.29 12.768 210.887 12.512 211.57 12.512L219.506 12.384C220.274 12.2987 220.914 12.512 221.426 13.024C221.938 13.536 222.194 14.176 222.194 14.944L223.986 68.448C223.986 69.216 223.73 69.856 223.218 70.368C222.791 70.88 222.194 71.136 221.426 71.136L211.826 71.392ZM247.911 9.952L248.167 11.872C248.167 12.384 248.423 12.768 248.935 13.024C249.447 13.1947 249.916 13.1093 250.343 12.768C253.586 9.52533 257.81 7.904 263.015 7.904C267.538 7.904 271.292 8.928 274.279 10.976C277.266 13.024 279.698 15.7547 281.575 19.168C283.452 22.496 284.86 26.336 285.799 30.688C286.738 34.9547 287.378 39.392 287.719 44C288.146 48.608 288.359 53.216 288.359 57.824C288.444 62.432 288.53 66.656 288.615 70.496C288.615 72.2027 287.762 73.1413 286.055 73.312L275.815 74.08C275.047 74.08 274.364 73.8667 273.767 73.44C273.255 72.928 272.999 72.288 272.999 71.52C272.743 63.4987 272.487 56.0747 272.231 49.248C271.975 42.336 271.463 36.4053 270.695 31.456C270.012 26.4213 268.946 22.496 267.495 19.68C266.13 16.864 264.167 15.456 261.607 15.456C259.047 15.456 257.127 16.9493 255.847 19.936C254.567 22.9227 253.671 27.0187 253.159 32.224C252.647 37.344 252.348 43.4453 252.263 50.528C252.263 57.5253 252.22 65.12 252.135 73.312C252.135 74.08 251.879 74.72 251.367 75.232C250.94 75.744 250.343 76 249.575 76L238.439 76.512C237.671 76.5973 237.031 76.384 236.519 75.872C236.007 75.36 235.708 74.72 235.623 73.952L234.215 10.464C234.215 9.78133 234.471 9.184 234.983 8.672C235.58 8.07466 236.22 7.73333 236.903 7.64799L245.095 7.392C245.863 7.30667 246.503 7.52 247.015 8.032C247.527 8.544 247.826 9.184 247.911 9.952ZM340.911 7.64799L342.959 8.8C343.812 9.31199 344.282 9.99466 344.367 10.848C344.452 11.7013 344.154 12.4267 343.471 13.024L343.087 13.536C342.66 13.9627 342.404 14.4747 342.319 15.072C342.234 15.6693 342.362 16.224 342.703 16.736C343.044 17.4187 343.343 18.1013 343.599 18.784C343.94 19.3813 344.196 20.0213 344.367 20.704C345.22 23.4347 345.306 25.8667 344.623 28C343.94 30.1333 342.746 32.0107 341.039 33.632C339.418 35.2533 337.412 36.6613 335.023 37.856C332.634 39.0507 330.116 40.1173 327.471 41.056C324.655 42.08 321.882 43.0187 319.151 43.872C316.42 44.64 313.946 45.408 311.727 46.176C309.594 46.944 307.887 47.7547 306.607 48.608C305.412 49.376 304.943 50.3147 305.199 51.424C305.284 51.936 305.967 52.192 307.247 52.192C308.442 52.192 310.02 51.9787 311.983 51.552C313.946 51.1253 316.122 50.6987 318.511 50.272C320.9 49.76 323.418 49.2907 326.063 48.864C328.708 48.4373 331.226 48.224 333.615 48.224C336.602 48.224 339.247 48.6507 341.551 49.504C343.855 50.3573 345.519 51.9787 346.543 54.368C348.164 57.696 348.378 60.8107 347.183 63.712C346.074 66.6133 344.154 69.1733 341.423 71.392C338.692 73.5253 335.45 75.1893 331.695 76.384C328.026 77.664 324.442 78.304 320.943 78.304C317.7 78.304 314.799 77.664 312.239 76.384C309.764 75.1893 308.058 73.2267 307.119 70.496C306.01 67.3387 306.052 64.224 307.247 61.152C307.418 60.64 307.332 60.2133 306.991 59.872C306.735 59.4453 306.351 59.2747 305.839 59.36C303.364 59.5307 301.188 59.3173 299.311 58.72C297.434 58.0373 296.196 56.5013 295.599 54.112C294.831 51.1253 295.215 48.6507 296.751 46.688C298.287 44.64 300.463 42.8907 303.279 41.44C303.706 41.2693 303.962 40.9707 304.047 40.544C304.132 40.032 304.004 39.648 303.663 39.392C302.468 38.368 301.359 37.1733 300.335 35.808C299.396 34.3573 298.799 32.7787 298.543 31.072C298.031 28.256 298.202 25.6533 299.055 23.264C299.994 20.8747 301.402 18.7413 303.279 16.864C305.156 14.9013 307.375 13.28 309.935 12C312.58 10.72 315.311 9.78133 318.127 9.184C320.431 8.672 322.692 8.416 324.911 8.416C328.154 8.416 331.183 8.928 333.999 9.952C334.596 10.1227 335.194 10.1227 335.791 9.952C336.388 9.69599 336.858 9.22666 337.199 8.544C337.711 7.69067 338.479 7.264 339.503 7.264C340.1 7.264 340.57 7.392 340.911 7.64799ZM320.175 15.712C317.444 16.48 315.61 17.888 314.671 19.936C313.732 21.984 313.476 24.1173 313.903 26.336C314.415 28.4693 315.439 30.3893 316.975 32.096C318.511 33.7173 320.388 34.528 322.607 34.528C323.546 34.528 324.57 34.3147 325.679 33.888C327.3 33.2053 328.538 32.224 329.391 30.944C330.33 29.664 330.884 28.256 331.055 26.72C331.226 25.184 331.098 23.648 330.671 22.112C330.244 20.576 329.519 19.2533 328.495 18.144C327.556 17.0347 326.362 16.224 324.911 15.712C323.546 15.2 321.967 15.2 320.175 15.712ZM328.879 69.6C330.5 69.0027 331.567 67.808 332.079 66.016C332.591 64.224 332.591 62.4747 332.079 60.768C331.567 59.0613 330.628 57.6533 329.263 56.544C327.898 55.4347 326.148 55.2213 324.015 55.904C321.967 56.5867 320.687 57.824 320.175 59.616C319.748 61.408 319.876 63.1573 320.559 64.864C321.242 66.5707 322.351 67.9787 323.887 69.088C325.423 70.112 327.087 70.2827 328.879 69.6ZM416.287 30.432C414.666 30.432 413.77 29.5787 413.599 27.872C413.428 23.52 412.532 20.32 410.911 18.272C409.375 16.224 407.498 15.2 405.279 15.2C402.975 15.2 401.012 15.9253 399.391 17.376C397.855 18.8267 397.087 21.0453 397.087 24.032C397.087 27.104 397.855 29.4933 399.391 31.2C400.927 32.9067 402.847 34.3147 405.151 35.424C407.455 36.5333 409.972 37.5147 412.703 38.368C415.434 39.2213 417.951 40.3307 420.255 41.696C422.644 42.976 424.65 44.7253 426.271 46.944C427.978 49.1627 428.916 52.1493 429.087 55.904C429.258 58.8053 428.703 61.4507 427.423 63.84C426.228 66.2293 424.607 68.2773 422.559 69.984C420.511 71.6907 418.164 73.0133 415.519 73.952C412.874 74.8907 410.228 75.36 407.583 75.36C404.682 75.36 401.908 75.0187 399.263 74.336C396.618 73.6533 394.271 72.5867 392.223 71.136C390.175 69.6853 388.468 67.8933 387.103 65.76C385.738 63.5413 384.927 60.9813 384.671 58.08C384.586 57.312 384.799 56.6293 385.311 56.032C385.823 55.4347 386.506 55.136 387.359 55.136L394.399 54.88C395.082 54.88 395.679 55.136 396.191 55.648C396.703 56.0747 397.044 56.6293 397.215 57.312C397.642 60.2987 398.623 62.6453 400.159 64.352C401.78 65.9733 403.743 66.7413 406.047 66.656C407.327 66.5707 408.436 66.2293 409.375 65.632C410.314 64.9493 411.082 64.1387 411.679 63.2C412.276 62.176 412.66 61.1093 412.831 60C413.087 58.8053 413.087 57.6107 412.831 56.416C412.404 54.368 411.338 52.7893 409.631 51.68C408.01 50.4853 406.047 49.4613 403.743 48.608C401.439 47.7547 399.007 46.9013 396.447 46.048C393.972 45.1947 391.626 44.0427 389.407 42.592C387.188 41.1413 385.311 39.2213 383.775 36.832C382.324 34.4427 381.514 31.2427 381.343 27.232C381.172 23.8187 381.77 20.8747 383.135 18.4C384.5 15.84 386.292 13.7493 388.511 12.128C390.815 10.4213 393.375 9.184 396.191 8.416C399.007 7.648 401.78 7.30667 404.511 7.392C406.986 7.47733 409.418 7.94666 411.807 8.8C414.196 9.568 416.372 10.8053 418.335 12.512C420.298 14.1333 421.919 16.224 423.199 18.784C424.564 21.2587 425.375 24.2453 425.631 27.744C425.716 28.512 425.46 29.1947 424.863 29.792C424.266 30.304 423.583 30.56 422.815 30.56L416.287 30.432ZM436.132 21.6C435.279 21.6853 434.553 21.472 433.956 20.96C433.359 20.448 433.06 19.7653 433.06 18.912V15.968C433.06 15.2853 433.316 14.688 433.828 14.176C434.425 13.5787 435.065 13.28 435.748 13.28L442.532 13.152C443.385 13.152 443.812 12.7253 443.812 11.872L443.684 6.752C443.684 5.984 443.897 5.344 444.324 4.83199C444.836 4.31999 445.433 4.02133 446.116 3.936L457.764 2.91199C458.532 2.82666 459.215 3.08266 459.812 3.68C460.409 4.27733 460.708 4.91733 460.708 5.6V11.104C460.708 12.2133 461.177 12.6827 462.116 12.512L472.868 12.256C473.636 12.256 474.276 12.512 474.788 13.024C475.3 13.536 475.556 14.176 475.556 14.944V16.736C475.556 18.3573 474.745 19.2533 473.124 19.424L461.988 20.192C461.135 20.192 460.708 20.6187 460.708 21.472V72.8C460.708 73.4827 460.409 74.1227 459.812 74.72C459.3 75.232 458.703 75.488 458.02 75.488H448.932C448.249 75.488 447.609 75.232 447.012 74.72C446.5 74.1227 446.244 73.4827 446.244 72.8L444.324 22.624C444.324 22.1973 444.153 21.856 443.812 21.6C443.556 21.344 443.215 21.216 442.788 21.216L436.132 21.6ZM502.859 7.392C509.259 7.56266 514.123 9.312 517.451 12.64C520.779 15.8827 523.126 20.4053 524.491 26.208C525.856 32.0107 526.411 39.008 526.155 47.2C525.984 55.3067 525.515 64.352 524.747 74.336C524.747 75.104 524.448 75.7013 523.851 76.128C523.254 76.64 522.614 76.8533 521.931 76.768L512.203 76.128C510.496 75.9573 509.643 75.0187 509.643 73.312C509.728 71.9467 509.771 70.5813 509.771 69.216C509.856 67.8507 509.942 66.4853 510.027 65.12C510.027 64.6933 509.814 64.352 509.387 64.096C509.046 63.7547 508.662 63.712 508.235 63.968C504.651 65.504 501.11 66.272 497.611 66.272C493.6 66.272 490.102 65.248 487.115 63.2C484.128 61.152 482.294 58.1653 481.611 54.24C480.928 50.2293 481.312 46.7733 482.763 43.872C484.299 40.9707 486.475 38.624 489.291 36.832C492.107 34.9547 495.264 33.6747 498.763 32.992C502.347 32.224 505.846 32.0533 509.259 32.48C509.686 32.5653 510.027 32.48 510.283 32.224C510.539 31.8827 510.667 31.4987 510.667 31.072C510.326 26.208 509.515 22.368 508.235 19.552C507.04 16.6507 505.035 15.1147 502.219 14.944C500.768 14.8587 499.531 15.2427 498.507 16.096C497.483 16.9493 496.63 18.016 495.947 19.296C495.264 20.576 494.667 21.9413 494.155 23.392C493.728 24.8427 493.387 26.1653 493.131 27.36C492.96 28.0427 492.576 28.5973 491.979 29.024C491.467 29.4507 490.87 29.5787 490.187 29.408L483.019 28.384C482.251 28.2987 481.654 27.9573 481.227 27.36C480.8 26.6773 480.672 25.952 480.843 25.184C481.099 23.7333 481.611 21.984 482.379 19.936C483.232 17.8027 484.47 15.7973 486.091 13.92C487.798 12.0427 489.974 10.464 492.619 9.184C495.35 7.81866 498.763 7.22133 502.859 7.392ZM491.979 52.96C492.32 54.3253 493.046 55.392 494.155 56.16C495.35 56.8427 496.758 57.184 498.379 57.184C500.086 57.184 501.878 56.8 503.755 56.032C505.718 55.264 507.68 54.0693 509.643 52.448C510.24 52.1067 510.539 51.5093 510.539 50.656C510.624 49.5467 510.667 48.48 510.667 47.456C510.667 46.432 510.71 45.408 510.795 44.384C510.795 43.36 510.368 42.6347 509.515 42.208C508.662 41.696 507.723 41.3547 506.699 41.184C505.675 41.0133 504.736 40.928 503.883 40.928C502.176 40.928 500.512 41.2267 498.891 41.824C497.27 42.336 495.862 43.104 494.667 44.128C493.558 45.152 492.704 46.432 492.107 47.968C491.595 49.4187 491.552 51.0827 491.979 52.96ZM549.521 10.08L549.649 12.256C549.734 12.768 549.99 13.152 550.417 13.408C550.929 13.5787 551.398 13.4933 551.825 13.152C555.153 10.6773 559.036 9.78133 563.473 10.464C566.374 10.8053 568.636 11.744 570.257 13.28C571.964 14.7307 573.201 16.4373 573.969 18.4C574.737 20.2773 575.206 22.1973 575.377 24.16C575.548 26.1227 575.59 27.8293 575.505 29.28C575.505 30.1333 575.164 30.816 574.481 31.328C573.884 31.7547 573.201 31.9253 572.433 31.84L568.465 31.2C567.782 31.1147 567.185 30.816 566.673 30.304C566.246 29.7067 566.076 29.0667 566.161 28.384C566.246 27.4453 566.246 26.464 566.161 25.44C566.161 24.3307 566.033 23.264 565.777 22.24C565.521 21.216 565.094 20.3627 564.497 19.68C563.9 18.912 563.089 18.4853 562.065 18.4C559.846 18.0587 558.097 18.8267 556.817 20.704C555.622 22.5813 554.769 25.7387 554.257 30.176C553.83 34.528 553.66 40.2453 553.745 47.328C553.916 54.4107 554.257 62.944 554.769 72.928C554.769 73.6107 554.513 74.2507 554.001 74.848C553.574 75.4453 552.977 75.744 552.209 75.744L541.457 76.128C540.774 76.128 540.134 75.9147 539.537 75.488C539.025 74.976 538.726 74.336 538.641 73.568L536.593 10.848C536.422 10.1653 536.593 9.568 537.105 9.056C537.617 8.45866 538.214 8.11733 538.897 8.032L546.705 7.64799C547.473 7.56266 548.113 7.776 548.625 8.28799C549.222 8.71466 549.521 9.31199 549.521 10.08ZM583.882 21.6C583.029 21.6853 582.303 21.472 581.706 20.96C581.109 20.448 580.81 19.7653 580.81 18.912V15.968C580.81 15.2853 581.066 14.688 581.578 14.176C582.175 13.5787 582.815 13.28 583.498 13.28L590.282 13.152C591.135 13.152 591.562 12.7253 591.562 11.872L591.434 6.752C591.434 5.984 591.647 5.344 592.074 4.83199C592.586 4.31999 593.183 4.02133 593.866 3.936L605.514 2.91199C606.282 2.82666 606.965 3.08266 607.562 3.68C608.159 4.27733 608.458 4.91733 608.458 5.6V11.104C608.458 12.2133 608.927 12.6827 609.866 12.512L620.618 12.256C621.386 12.256 622.026 12.512 622.538 13.024C623.05 13.536 623.306 14.176 623.306 14.944V16.736C623.306 18.3573 622.495 19.2533 620.874 19.424L609.738 20.192C608.885 20.192 608.458 20.6187 608.458 21.472V72.8C608.458 73.4827 608.159 74.1227 607.562 74.72C607.05 75.232 606.453 75.488 605.77 75.488H596.682C595.999 75.488 595.359 75.232 594.762 74.72C594.25 74.1227 593.994 73.4827 593.994 72.8L592.074 22.624C592.074 22.1973 591.903 21.856 591.562 21.6C591.306 21.344 590.965 21.216 590.538 21.216L583.882 21.6ZM670.497 52.192C671.18 52.2773 671.734 52.576 672.161 53.088C672.588 53.6 672.801 54.1973 672.801 54.88C672.801 56.2453 672.63 57.9947 672.289 60.128C671.948 62.176 671.222 64.224 670.113 66.272C669.004 68.32 667.382 70.1547 665.249 71.776C663.201 73.3973 660.385 74.464 656.801 74.976C652.193 75.5733 648.097 75.1893 644.513 73.824C641.014 72.3733 637.985 70.24 635.425 67.424C632.95 64.608 630.988 61.3227 629.537 57.568C628.086 53.728 627.148 49.76 626.721 45.664C626.294 41.4827 626.38 37.3867 626.977 33.376C627.574 29.28 628.684 25.568 630.305 22.24C631.926 18.8267 634.017 16.0107 636.577 13.792C639.222 11.488 642.337 10.08 645.921 9.56799C649.761 9.05599 653.046 9.26933 655.777 10.208C658.508 11.0613 660.812 12.4267 662.689 14.304C664.566 16.096 666.06 18.1867 667.169 20.576C668.278 22.9653 669.132 25.3973 669.729 27.872C670.326 30.2613 670.753 32.5653 671.009 34.784C671.265 36.9173 671.393 38.6667 671.393 40.032C671.393 40.7147 671.137 41.312 670.625 41.824C670.198 42.336 669.644 42.6347 668.961 42.72L646.305 45.92C645.537 46.0053 644.897 46.3893 644.385 47.072C643.958 47.6693 643.83 48.3093 644.001 48.992C644.172 51.4667 644.556 53.8133 645.153 56.032C645.75 58.1653 646.476 60.0853 647.329 61.792C648.268 63.4133 649.334 64.6933 650.529 65.632C651.809 66.5707 653.174 67.04 654.625 67.04C656.332 67.04 657.74 66.5707 658.849 65.632C660.044 64.6933 660.982 63.5413 661.665 62.176C662.433 60.8107 662.988 59.4027 663.329 57.952C663.756 56.5013 664.054 55.264 664.225 54.24C664.396 53.5573 664.737 53.0027 665.249 52.576C665.761 52.064 666.358 51.8507 667.041 51.936L670.497 52.192ZM647.969 17.376C646.86 17.632 645.921 18.272 645.153 19.296C644.385 20.32 643.745 21.6427 643.233 23.264C642.806 24.8853 642.55 26.72 642.465 28.768C642.38 30.816 642.465 32.992 642.721 35.296C642.892 36.1493 643.19 36.832 643.617 37.344C644.129 37.856 644.812 38.0693 645.665 37.984L655.777 36.832C656.545 36.7467 657.142 36.448 657.569 35.936C658.081 35.3387 658.294 34.6987 658.209 34.016C658.124 32.5653 657.868 30.8587 657.441 28.896C657.1 26.848 656.545 24.928 655.777 23.136C655.009 21.2587 653.985 19.7653 652.705 18.656C651.425 17.4613 649.846 17.0347 647.969 17.376ZM679.468 14.56C679.297 13.8773 679.383 13.28 679.724 12.768C680.151 12.256 680.705 11.9147 681.388 11.744C683.351 11.1467 685.527 10.6773 687.916 10.336C690.305 9.99466 692.78 9.824 695.34 9.824C698.668 9.824 701.996 10.208 705.324 10.976C708.737 11.744 711.852 13.152 714.668 15.2C717.484 17.1627 719.916 19.8507 721.964 23.264C724.012 26.592 725.377 30.816 726.06 35.936C726.999 43.36 726.487 49.5467 724.524 54.496C722.561 59.36 719.703 63.2853 715.948 66.272C712.279 69.1733 707.969 71.3067 703.02 72.672C698.156 73.952 693.292 74.72 688.428 74.976C687.66 75.0613 687.02 74.848 686.508 74.336C685.996 73.824 685.697 73.2267 685.612 72.544L679.468 14.56ZM700.844 64.096C700.929 64.5227 701.143 64.864 701.484 65.12C701.825 65.376 702.209 65.4187 702.636 65.248C706.732 64.0533 709.847 61.152 711.98 56.544C714.113 51.936 714.711 45.9627 713.772 38.624C712.833 31.1147 710.913 25.696 708.012 22.368C705.111 19.04 701.612 17.504 697.516 17.76C696.663 17.76 696.236 18.2293 696.236 19.168L700.844 64.096Z" fill="#F4711F"/>
</svg>
