<svg width="565" height="76" viewBox="0 0 565 76" fill="none" xmlns="http://www.w3.org/2000/svg">
<path d="M35.912 64.888C36.5947 64.8027 37.192 65.016 37.704 65.528C38.3013 65.9547 38.6427 66.5093 38.728 67.192L38.984 69.368C39.0693 70.2213 38.856 70.9467 38.344 71.544C37.9173 72.056 37.32 72.3547 36.552 72.44L4.808 74.488C3.95467 74.5733 3.22933 74.36 2.632 73.848C2.12 73.2507 1.864 72.6107 1.864 71.928V70.136C1.864 69.4533 2.07733 68.856 2.504 68.344C3.016 67.7467 3.61333 67.4053 4.296 67.32L12.36 66.808C12.7013 66.808 12.9573 66.68 13.128 66.424C13.384 66.0827 13.512 65.6987 13.512 65.272L10.184 10.488C10.184 10.1467 10.0133 9.848 9.672 9.592C9.416 9.336 9.07467 9.25067 8.648 9.336L4.424 9.71999C2.71733 9.89066 1.736 9.12267 1.48 7.416L0.968 3.96C0.797333 3.10667 0.968 2.38133 1.48 1.784C1.992 1.18666 2.632 0.887993 3.4 0.887993L31.688 0.247993C33.3093 0.247993 34.2053 1.10133 34.376 2.808L34.504 4.216C34.5893 4.984 34.376 5.624 33.864 6.13599C33.352 6.648 32.7547 6.94667 32.072 7.032L27.72 7.416C27.3787 7.416 27.08 7.58666 26.824 7.92799C26.6533 8.184 26.568 8.52533 26.568 8.952L28.872 64.12C28.872 64.4613 29 64.76 29.256 65.016C29.5973 65.1867 29.9387 65.272 30.28 65.272L35.912 64.888ZM60.536 8.952L60.792 10.872C60.792 11.384 61.048 11.768 61.56 12.024C62.072 12.1947 62.5413 12.1093 62.968 11.768C66.2107 8.52533 70.4347 6.904 75.64 6.904C80.1627 6.904 83.9173 7.928 86.904 9.976C89.8907 12.024 92.3227 14.7547 94.2 18.168C96.0773 21.496 97.4853 25.336 98.424 29.688C99.3627 33.9547 100.003 38.392 100.344 43C100.771 47.608 100.984 52.216 100.984 56.824C101.069 61.432 101.155 65.656 101.24 69.496C101.24 71.2027 100.387 72.1413 98.68 72.312L88.44 73.08C87.672 73.08 86.9893 72.8667 86.392 72.44C85.88 71.928 85.624 71.288 85.624 70.52C85.368 62.4987 85.112 55.0747 84.856 48.248C84.6 41.336 84.088 35.4053 83.32 30.456C82.6373 25.4213 81.5707 21.496 80.12 18.68C78.7547 15.864 76.792 14.456 74.232 14.456C71.672 14.456 69.752 15.9493 68.472 18.936C67.192 21.9227 66.296 26.0187 65.784 31.224C65.272 36.344 64.9733 42.4453 64.888 49.528C64.888 56.5253 64.8453 64.12 64.76 72.312C64.76 73.08 64.504 73.72 63.992 74.232C63.5653 74.744 62.968 75 62.2 75L51.064 75.512C50.296 75.5973 49.656 75.384 49.144 74.872C48.632 74.36 48.3333 73.72 48.248 72.952L46.84 9.464C46.84 8.78133 47.096 8.184 47.608 7.672C48.2053 7.07466 48.8453 6.73333 49.528 6.64799L57.72 6.392C58.488 6.30667 59.128 6.52 59.64 7.032C60.152 7.544 60.4507 8.184 60.536 8.952ZM142.287 29.432C140.666 29.432 139.77 28.5787 139.599 26.872C139.428 22.52 138.532 19.32 136.911 17.272C135.375 15.224 133.498 14.2 131.279 14.2C128.975 14.2 127.012 14.9253 125.391 16.376C123.855 17.8267 123.087 20.0453 123.087 23.032C123.087 26.104 123.855 28.4933 125.391 30.2C126.927 31.9067 128.847 33.3147 131.151 34.424C133.455 35.5333 135.972 36.5147 138.703 37.368C141.434 38.2213 143.951 39.3307 146.255 40.696C148.644 41.976 150.65 43.7253 152.271 45.944C153.978 48.1627 154.916 51.1493 155.087 54.904C155.258 57.8053 154.703 60.4507 153.423 62.84C152.228 65.2293 150.607 67.2773 148.559 68.984C146.511 70.6907 144.164 72.0133 141.519 72.952C138.874 73.8907 136.228 74.36 133.583 74.36C130.682 74.36 127.908 74.0187 125.263 73.336C122.618 72.6533 120.271 71.5867 118.223 70.136C116.175 68.6853 114.468 66.8933 113.103 64.76C111.738 62.5413 110.927 59.9813 110.671 57.08C110.586 56.312 110.799 55.6293 111.311 55.032C111.823 54.4347 112.506 54.136 113.359 54.136L120.399 53.88C121.082 53.88 121.679 54.136 122.191 54.648C122.703 55.0747 123.044 55.6293 123.215 56.312C123.642 59.2987 124.623 61.6453 126.159 63.352C127.78 64.9733 129.743 65.7413 132.047 65.656C133.327 65.5707 134.436 65.2293 135.375 64.632C136.314 63.9493 137.082 63.1387 137.679 62.2C138.276 61.176 138.66 60.1093 138.831 59C139.087 57.8053 139.087 56.6107 138.831 55.416C138.404 53.368 137.338 51.7893 135.631 50.68C134.01 49.4853 132.047 48.4613 129.743 47.608C127.439 46.7547 125.007 45.9013 122.447 45.048C119.972 44.1947 117.626 43.0427 115.407 41.592C113.188 40.1413 111.311 38.2213 109.775 35.832C108.324 33.4427 107.514 30.2427 107.343 26.232C107.172 22.8187 107.77 19.8747 109.135 17.4C110.5 14.84 112.292 12.7493 114.511 11.128C116.815 9.42133 119.375 8.184 122.191 7.416C125.007 6.648 127.78 6.30667 130.511 6.392C132.986 6.47733 135.418 6.94666 137.807 7.8C140.196 8.568 142.372 9.80533 144.335 11.512C146.298 13.1333 147.919 15.224 149.199 17.784C150.564 20.2587 151.375 23.2453 151.631 26.744C151.716 27.512 151.46 28.1947 150.863 28.792C150.266 29.304 149.583 29.56 148.815 29.56L142.287 29.432ZM162.132 20.6C161.279 20.6853 160.553 20.472 159.956 19.96C159.359 19.448 159.06 18.7653 159.06 17.912V14.968C159.06 14.2853 159.316 13.688 159.828 13.176C160.425 12.5787 161.065 12.28 161.748 12.28L168.532 12.152C169.385 12.152 169.812 11.7253 169.812 10.872L169.684 5.752C169.684 4.984 169.897 4.344 170.324 3.83199C170.836 3.31999 171.433 3.02133 172.116 2.936L183.764 1.91199C184.532 1.82666 185.215 2.08266 185.812 2.68C186.409 3.27733 186.708 3.91733 186.708 4.6V10.104C186.708 11.2133 187.177 11.6827 188.116 11.512L198.868 11.256C199.636 11.256 200.276 11.512 200.788 12.024C201.3 12.536 201.556 13.176 201.556 13.944V15.736C201.556 17.3573 200.745 18.2533 199.124 18.424L187.988 19.192C187.135 19.192 186.708 19.6187 186.708 20.472V71.8C186.708 72.4827 186.409 73.1227 185.812 73.72C185.3 74.232 184.703 74.488 184.02 74.488H174.932C174.249 74.488 173.609 74.232 173.012 73.72C172.5 73.1227 172.244 72.4827 172.244 71.8L170.324 21.624C170.324 21.1973 170.153 20.856 169.812 20.6C169.556 20.344 169.215 20.216 168.788 20.216L162.132 20.6ZM228.859 6.392C235.259 6.56266 240.123 8.312 243.451 11.64C246.779 14.8827 249.126 19.4053 250.491 25.208C251.856 31.0107 252.411 38.008 252.155 46.2C251.984 54.3067 251.515 63.352 250.747 73.336C250.747 74.104 250.448 74.7013 249.851 75.128C249.254 75.64 248.614 75.8533 247.931 75.768L238.203 75.128C236.496 74.9573 235.643 74.0187 235.643 72.312C235.728 70.9467 235.771 69.5813 235.771 68.216C235.856 66.8507 235.942 65.4853 236.027 64.12C236.027 63.6933 235.814 63.352 235.387 63.096C235.046 62.7547 234.662 62.712 234.235 62.968C230.651 64.504 227.11 65.272 223.611 65.272C219.6 65.272 216.102 64.248 213.115 62.2C210.128 60.152 208.294 57.1653 207.611 53.24C206.928 49.2293 207.312 45.7733 208.763 42.872C210.299 39.9707 212.475 37.624 215.291 35.832C218.107 33.9547 221.264 32.6747 224.763 31.992C228.347 31.224 231.846 31.0533 235.259 31.48C235.686 31.5653 236.027 31.48 236.283 31.224C236.539 30.8827 236.667 30.4987 236.667 30.072C236.326 25.208 235.515 21.368 234.235 18.552C233.04 15.6507 231.035 14.1147 228.219 13.944C226.768 13.8587 225.531 14.2427 224.507 15.096C223.483 15.9493 222.63 17.016 221.947 18.296C221.264 19.576 220.667 20.9413 220.155 22.392C219.728 23.8427 219.387 25.1653 219.131 26.36C218.96 27.0427 218.576 27.5973 217.979 28.024C217.467 28.4507 216.87 28.5787 216.187 28.408L209.019 27.384C208.251 27.2987 207.654 26.9573 207.227 26.36C206.8 25.6773 206.672 24.952 206.843 24.184C207.099 22.7333 207.611 20.984 208.379 18.936C209.232 16.8027 210.47 14.7973 212.091 12.92C213.798 11.0427 215.974 9.464 218.619 8.184C221.35 6.81866 224.763 6.22133 228.859 6.392ZM217.979 51.96C218.32 53.3253 219.046 54.392 220.155 55.16C221.35 55.8427 222.758 56.184 224.379 56.184C226.086 56.184 227.878 55.8 229.755 55.032C231.718 54.264 233.68 53.0693 235.643 51.448C236.24 51.1067 236.539 50.5093 236.539 49.656C236.624 48.5467 236.667 47.48 236.667 46.456C236.667 45.432 236.71 44.408 236.795 43.384C236.795 42.36 236.368 41.6347 235.515 41.208C234.662 40.696 233.723 40.3547 232.699 40.184C231.675 40.0133 230.736 39.928 229.883 39.928C228.176 39.928 226.512 40.2267 224.891 40.824C223.27 41.336 221.862 42.104 220.667 43.128C219.558 44.152 218.704 45.432 218.107 46.968C217.595 48.4187 217.552 50.0827 217.979 51.96ZM268.639 75C267.956 75.0853 267.316 74.872 266.719 74.36C266.122 73.848 265.823 73.208 265.823 72.44L261.215 9.208C261.215 8.44 261.471 7.8 261.983 7.28799C262.495 6.69066 263.135 6.392 263.903 6.392L274.911 6.13599C275.679 6.05066 276.319 6.26399 276.831 6.77599C277.343 7.288 277.599 7.928 277.599 8.696L279.391 66.296C279.391 66.7227 279.519 67.064 279.775 67.32C280.116 67.576 280.5 67.6613 280.927 67.576L286.559 66.936C287.242 66.7653 287.882 66.936 288.479 67.448C289.076 67.96 289.418 68.6 289.503 69.368L289.631 70.776C289.631 71.544 289.375 72.2267 288.863 72.824C288.351 73.4213 287.754 73.72 287.071 73.72L268.639 75ZM304.764 75C304.081 75.0853 303.441 74.872 302.844 74.36C302.247 73.848 301.948 73.208 301.948 72.44L297.34 9.208C297.34 8.44 297.596 7.8 298.108 7.28799C298.62 6.69066 299.26 6.392 300.028 6.392L311.036 6.13599C311.804 6.05066 312.444 6.26399 312.956 6.77599C313.468 7.288 313.724 7.928 313.724 8.696L315.516 66.296C315.516 66.7227 315.644 67.064 315.9 67.32C316.241 67.576 316.625 67.6613 317.052 67.576L322.684 66.936C323.367 66.7653 324.007 66.936 324.604 67.448C325.201 67.96 325.543 68.6 325.628 69.368L325.756 70.776C325.756 71.544 325.5 72.2267 324.988 72.824C324.476 73.4213 323.879 73.72 323.196 73.72L304.764 75ZM353.109 6.392C359.509 6.56266 364.373 8.312 367.701 11.64C371.029 14.8827 373.376 19.4053 374.741 25.208C376.106 31.0107 376.661 38.008 376.405 46.2C376.234 54.3067 375.765 63.352 374.997 73.336C374.997 74.104 374.698 74.7013 374.101 75.128C373.504 75.64 372.864 75.8533 372.181 75.768L362.453 75.128C360.746 74.9573 359.893 74.0187 359.893 72.312C359.978 70.9467 360.021 69.5813 360.021 68.216C360.106 66.8507 360.192 65.4853 360.277 64.12C360.277 63.6933 360.064 63.352 359.637 63.096C359.296 62.7547 358.912 62.712 358.485 62.968C354.901 64.504 351.36 65.272 347.861 65.272C343.85 65.272 340.352 64.248 337.365 62.2C334.378 60.152 332.544 57.1653 331.861 53.24C331.178 49.2293 331.562 45.7733 333.013 42.872C334.549 39.9707 336.725 37.624 339.541 35.832C342.357 33.9547 345.514 32.6747 349.013 31.992C352.597 31.224 356.096 31.0533 359.509 31.48C359.936 31.5653 360.277 31.48 360.533 31.224C360.789 30.8827 360.917 30.4987 360.917 30.072C360.576 25.208 359.765 21.368 358.485 18.552C357.29 15.6507 355.285 14.1147 352.469 13.944C351.018 13.8587 349.781 14.2427 348.757 15.096C347.733 15.9493 346.88 17.016 346.197 18.296C345.514 19.576 344.917 20.9413 344.405 22.392C343.978 23.8427 343.637 25.1653 343.381 26.36C343.21 27.0427 342.826 27.5973 342.229 28.024C341.717 28.4507 341.12 28.5787 340.437 28.408L333.269 27.384C332.501 27.2987 331.904 26.9573 331.477 26.36C331.05 25.6773 330.922 24.952 331.093 24.184C331.349 22.7333 331.861 20.984 332.629 18.936C333.482 16.8027 334.72 14.7973 336.341 12.92C338.048 11.0427 340.224 9.464 342.869 8.184C345.6 6.81866 349.013 6.22133 353.109 6.392ZM342.229 51.96C342.57 53.3253 343.296 54.392 344.405 55.16C345.6 55.8427 347.008 56.184 348.629 56.184C350.336 56.184 352.128 55.8 354.005 55.032C355.968 54.264 357.93 53.0693 359.893 51.448C360.49 51.1067 360.789 50.5093 360.789 49.656C360.874 48.5467 360.917 47.48 360.917 46.456C360.917 45.432 360.96 44.408 361.045 43.384C361.045 42.36 360.618 41.6347 359.765 41.208C358.912 40.696 357.973 40.3547 356.949 40.184C355.925 40.0133 354.986 39.928 354.133 39.928C352.426 39.928 350.762 40.2267 349.141 40.824C347.52 41.336 346.112 42.104 344.917 43.128C343.808 44.152 342.954 45.432 342.357 46.968C341.845 48.4187 341.802 50.0827 342.229 51.96ZM384.757 20.6C383.904 20.6853 383.178 20.472 382.581 19.96C381.984 19.448 381.685 18.7653 381.685 17.912V14.968C381.685 14.2853 381.941 13.688 382.453 13.176C383.05 12.5787 383.69 12.28 384.373 12.28L391.157 12.152C392.01 12.152 392.437 11.7253 392.437 10.872L392.309 5.752C392.309 4.984 392.522 4.344 392.949 3.83199C393.461 3.31999 394.058 3.02133 394.741 2.936L406.389 1.91199C407.157 1.82666 407.84 2.08266 408.437 2.68C409.034 3.27733 409.333 3.91733 409.333 4.6V10.104C409.333 11.2133 409.802 11.6827 410.741 11.512L421.493 11.256C422.261 11.256 422.901 11.512 423.413 12.024C423.925 12.536 424.181 13.176 424.181 13.944V15.736C424.181 17.3573 423.37 18.2533 421.749 18.424L410.613 19.192C409.76 19.192 409.333 19.6187 409.333 20.472V71.8C409.333 72.4827 409.034 73.1227 408.437 73.72C407.925 74.232 407.328 74.488 406.645 74.488H397.557C396.874 74.488 396.234 74.232 395.637 73.72C395.125 73.1227 394.869 72.4827 394.869 71.8L392.949 21.624C392.949 21.1973 392.778 20.856 392.437 20.6C392.181 20.344 391.84 20.216 391.413 20.216L384.757 20.6ZM435.326 70.392C434.643 70.392 434.046 70.136 433.534 69.624C433.022 69.112 432.766 68.472 432.766 67.704L432.51 14.2C432.51 13.432 432.766 12.792 433.278 12.28C433.79 11.768 434.387 11.512 435.07 11.512L443.006 11.384C443.774 11.2987 444.414 11.512 444.926 12.024C445.438 12.536 445.694 13.176 445.694 13.944L447.486 67.448C447.486 68.216 447.23 68.856 446.718 69.368C446.291 69.88 445.694 70.136 444.926 70.136L435.326 70.392ZM476.049 15.096C480.145 14.4133 483.729 14.6267 486.801 15.736C489.958 16.76 492.646 18.296 494.865 20.344C497.084 22.392 498.79 24.7813 499.985 27.512C501.265 30.2427 502.076 32.9733 502.417 35.704C502.844 38.6053 502.801 41.592 502.289 44.664C501.777 47.6507 500.753 50.424 499.217 52.984C497.681 55.544 495.548 57.72 492.817 59.512C490.086 61.304 486.673 62.4133 482.577 62.84C479.249 63.1813 476.177 62.9253 473.361 62.072C470.545 61.1333 468.028 59.8107 465.809 58.104C463.676 56.3973 461.884 54.3067 460.433 51.832C458.982 49.3573 457.916 46.712 457.233 43.896C456.636 40.9093 456.508 37.88 456.849 34.808C457.19 31.6507 458.086 28.7493 459.537 26.104C460.988 23.3733 463.078 21.0267 465.809 19.064C468.54 17.016 471.953 15.6933 476.049 15.096ZM477.841 21.112C476.39 21.368 475.196 22.136 474.257 23.416C473.404 24.6107 472.764 26.1467 472.337 28.024C471.996 29.816 471.825 31.8213 471.825 34.04C471.825 36.2587 471.953 38.4347 472.209 40.568C472.465 42.5307 472.806 44.4507 473.233 46.328C473.66 48.12 474.257 49.6987 475.025 51.064C475.793 52.4293 476.732 53.496 477.841 54.264C478.95 55.032 480.273 55.3733 481.809 55.288C483.601 55.1173 485.009 54.4773 486.033 53.368C487.057 52.1733 487.825 50.7227 488.337 49.016C488.849 47.224 489.105 45.2187 489.105 43C489.105 40.7813 488.934 38.6053 488.593 36.472C488.337 34.424 487.91 32.4613 487.313 30.584C486.801 28.6213 486.118 26.9147 485.265 25.464C484.412 24.0133 483.388 22.904 482.193 22.136C480.998 21.2827 479.548 20.9413 477.841 21.112ZM524.161 8.952L524.417 10.872C524.417 11.384 524.673 11.768 525.185 12.024C525.697 12.1947 526.166 12.1093 526.593 11.768C529.836 8.52533 534.06 6.904 539.265 6.904C543.788 6.904 547.542 7.928 550.529 9.976C553.516 12.024 555.948 14.7547 557.825 18.168C559.702 21.496 561.11 25.336 562.049 29.688C562.988 33.9547 563.628 38.392 563.969 43C564.396 47.608 564.609 52.216 564.609 56.824C564.694 61.432 564.78 65.656 564.865 69.496C564.865 71.2027 564.012 72.1413 562.305 72.312L552.065 73.08C551.297 73.08 550.614 72.8667 550.017 72.44C549.505 71.928 549.249 71.288 549.249 70.52C548.993 62.4987 548.737 55.0747 548.481 48.248C548.225 41.336 547.713 35.4053 546.945 30.456C546.262 25.4213 545.196 21.496 543.745 18.68C542.38 15.864 540.417 14.456 537.857 14.456C535.297 14.456 533.377 15.9493 532.097 18.936C530.817 21.9227 529.921 26.0187 529.409 31.224C528.897 36.344 528.598 42.4453 528.513 49.528C528.513 56.5253 528.47 64.12 528.385 72.312C528.385 73.08 528.129 73.72 527.617 74.232C527.19 74.744 526.593 75 525.825 75L514.689 75.512C513.921 75.5973 513.281 75.384 512.769 74.872C512.257 74.36 511.958 73.72 511.873 72.952L510.465 9.464C510.465 8.78133 510.721 8.184 511.233 7.672C511.83 7.07466 512.47 6.73333 513.153 6.64799L521.345 6.392C522.113 6.30667 522.753 6.52 523.265 7.032C523.777 7.544 524.076 8.184 524.161 8.952Z" fill="#F4711F"/>
</svg>
