<svg width="338" height="80" viewBox="0 0 338 80" fill="none" xmlns="http://www.w3.org/2000/svg">
<path d="M2.832 1.2L13.84 0.943993C14.6933 0.943993 15.376 1.19999 15.888 1.712C16.4853 2.13866 16.784 2.77866 16.784 3.632L16.272 69.552C16.272 70.4053 16.7413 70.832 17.68 70.832L35.472 69.808C36.3253 69.7227 37.008 69.936 37.52 70.448C38.032 70.96 38.3307 71.6427 38.416 72.496L38.544 74.672C38.6293 75.44 38.416 76.08 37.904 76.592C37.4773 77.0187 36.9227 77.2747 36.24 77.36L3.216 79.792C2.53333 79.8773 1.89333 79.664 1.296 79.152C0.698667 78.64 0.4 78 0.4 77.232V3.75999C0.4 2.99199 0.613334 2.39466 1.04 1.96799C1.552 1.456 2.14933 1.2 2.832 1.2ZM49.826 73.392C49.1433 73.392 48.546 73.136 48.034 72.624C47.522 72.112 47.266 71.472 47.266 70.704L47.01 17.2C47.01 16.432 47.266 15.792 47.778 15.28C48.29 14.768 48.8873 14.512 49.57 14.512L57.506 14.384C58.274 14.2987 58.914 14.512 59.426 15.024C59.938 15.536 60.194 16.176 60.194 16.944L61.986 70.448C61.986 71.216 61.73 71.856 61.218 72.368C60.7913 72.88 60.194 73.136 59.426 73.136L49.826 73.392ZM106.805 37.424C106.037 37.5947 105.312 37.4667 104.629 37.04C104.032 36.528 103.648 35.888 103.477 35.12C102.624 29.744 101.514 25.8613 100.149 23.472C98.7837 21.0827 96.9917 19.8453 94.773 19.76C93.4077 19.76 92.2557 20.4853 91.317 21.936C90.4637 23.3867 89.781 25.3493 89.269 27.824C88.8423 30.2133 88.5863 32.9867 88.501 36.144C88.4157 39.216 88.501 42.416 88.757 45.744C89.013 48.9013 89.3543 51.9733 89.781 54.96C90.293 57.8613 90.9757 60.464 91.829 62.768C92.6823 64.9867 93.749 66.736 95.029 68.016C96.309 69.296 97.845 69.8933 99.637 69.808C100.832 69.7227 101.856 69.2533 102.709 68.4C103.648 67.5467 104.416 66.48 105.013 65.2C105.61 63.8347 106.08 62.2987 106.421 60.592C106.762 58.8853 106.933 57.136 106.933 55.344C106.933 54.6613 107.146 54.064 107.573 53.552C108.085 53.04 108.682 52.784 109.365 52.784L113.461 52.656C114.314 52.5707 114.997 52.8267 115.509 53.424C116.021 53.936 116.277 54.576 116.277 55.344C116.192 57.0507 115.893 59.056 115.381 61.36C114.869 63.5787 113.973 65.7973 112.693 68.016C111.498 70.1493 109.92 72.0267 107.957 73.648C105.994 75.2693 103.477 76.2933 100.405 76.72C96.3943 77.232 92.6823 76.976 89.269 75.952C85.941 74.8427 82.997 73.0933 80.437 70.704C77.9623 68.2293 75.957 65.1573 74.421 61.488C72.885 57.7333 71.9037 53.5093 71.477 48.816C71.1357 44.5493 71.093 40.368 71.349 36.272C71.605 32.0907 72.4157 28.336 73.781 25.008C75.1463 21.5947 77.1517 18.7787 79.797 16.56C82.5277 14.256 86.1543 12.848 90.677 12.336C94.773 11.824 98.1437 12.208 100.789 13.488C103.52 14.768 105.696 16.5173 107.317 18.736C108.938 20.8693 110.133 23.3013 110.901 26.032C111.754 28.6773 112.309 31.2373 112.565 33.712C112.65 34.3947 112.48 35.0347 112.053 35.632C111.626 36.144 111.072 36.4853 110.389 36.656L106.805 37.424ZM166.747 54.192C167.43 54.2773 167.984 54.576 168.411 55.088C168.838 55.6 169.051 56.1973 169.051 56.88C169.051 58.2453 168.88 59.9947 168.539 62.128C168.198 64.176 167.472 66.224 166.363 68.272C165.254 70.32 163.632 72.1547 161.499 73.776C159.451 75.3973 156.635 76.464 153.051 76.976C148.443 77.5733 144.347 77.1893 140.763 75.824C137.264 74.3733 134.235 72.24 131.675 69.424C129.2 66.608 127.238 63.3227 125.787 59.568C124.336 55.728 123.398 51.76 122.971 47.664C122.544 43.4827 122.63 39.3867 123.227 35.376C123.824 31.28 124.934 27.568 126.555 24.24C128.176 20.8267 130.267 18.0107 132.827 15.792C135.472 13.488 138.587 12.08 142.171 11.568C146.011 11.056 149.296 11.2693 152.027 12.208C154.758 13.0613 157.062 14.4267 158.939 16.304C160.816 18.096 162.31 20.1867 163.419 22.576C164.528 24.9653 165.382 27.3973 165.979 29.872C166.576 32.2613 167.003 34.5653 167.259 36.784C167.515 38.9173 167.643 40.6667 167.643 42.032C167.643 42.7147 167.387 43.312 166.875 43.824C166.448 44.336 165.894 44.6347 165.211 44.72L142.555 47.92C141.787 48.0053 141.147 48.3893 140.635 49.072C140.208 49.6693 140.08 50.3093 140.251 50.992C140.422 53.4667 140.806 55.8133 141.403 58.032C142 60.1653 142.726 62.0853 143.579 63.792C144.518 65.4133 145.584 66.6933 146.779 67.632C148.059 68.5707 149.424 69.04 150.875 69.04C152.582 69.04 153.99 68.5707 155.099 67.632C156.294 66.6933 157.232 65.5413 157.915 64.176C158.683 62.8107 159.238 61.4027 159.579 59.952C160.006 58.5013 160.304 57.264 160.475 56.24C160.646 55.5573 160.987 55.0027 161.499 54.576C162.011 54.064 162.608 53.8507 163.291 53.936L166.747 54.192ZM144.219 19.376C143.11 19.632 142.171 20.272 141.403 21.296C140.635 22.32 139.995 23.6427 139.483 25.264C139.056 26.8853 138.8 28.72 138.715 30.768C138.63 32.816 138.715 34.992 138.971 37.296C139.142 38.1493 139.44 38.832 139.867 39.344C140.379 39.856 141.062 40.0693 141.915 39.984L152.027 38.832C152.795 38.7467 153.392 38.448 153.819 37.936C154.331 37.3387 154.544 36.6987 154.459 36.016C154.374 34.5653 154.118 32.8587 153.691 30.896C153.35 28.848 152.795 26.928 152.027 25.136C151.259 23.2587 150.235 21.7653 148.955 20.656C147.675 19.4613 146.096 19.0347 144.219 19.376ZM190.536 11.952L190.792 13.872C190.792 14.384 191.048 14.768 191.56 15.024C192.072 15.1947 192.541 15.1093 192.968 14.768C196.211 11.5253 200.435 9.904 205.64 9.904C210.163 9.904 213.917 10.928 216.904 12.976C219.891 15.024 222.323 17.7547 224.2 21.168C226.077 24.496 227.485 28.336 228.424 32.688C229.363 36.9547 230.003 41.392 230.344 46C230.771 50.608 230.984 55.216 230.984 59.824C231.069 64.432 231.155 68.656 231.24 72.496C231.24 74.2027 230.387 75.1413 228.68 75.312L218.44 76.08C217.672 76.08 216.989 75.8667 216.392 75.44C215.88 74.928 215.624 74.288 215.624 73.52C215.368 65.4987 215.112 58.0747 214.856 51.248C214.6 44.336 214.088 38.4053 213.32 33.456C212.637 28.4213 211.571 24.496 210.12 21.68C208.755 18.864 206.792 17.456 204.232 17.456C201.672 17.456 199.752 18.9493 198.472 21.936C197.192 24.9227 196.296 29.0187 195.784 34.224C195.272 39.344 194.973 45.4453 194.888 52.528C194.888 59.5253 194.845 67.12 194.76 75.312C194.76 76.08 194.504 76.72 193.992 77.232C193.565 77.744 192.968 78 192.2 78L181.064 78.512C180.296 78.5973 179.656 78.384 179.144 77.872C178.632 77.36 178.333 76.72 178.248 75.952L176.84 12.464C176.84 11.7813 177.096 11.184 177.608 10.672C178.205 10.0747 178.845 9.73333 179.528 9.64799L187.72 9.392C188.488 9.30667 189.128 9.52 189.64 10.032C190.152 10.544 190.451 11.184 190.536 11.952ZM272.287 32.432C270.666 32.432 269.77 31.5787 269.599 29.872C269.428 25.52 268.532 22.32 266.911 20.272C265.375 18.224 263.498 17.2 261.279 17.2C258.975 17.2 257.012 17.9253 255.391 19.376C253.855 20.8267 253.087 23.0453 253.087 26.032C253.087 29.104 253.855 31.4933 255.391 33.2C256.927 34.9067 258.847 36.3147 261.151 37.424C263.455 38.5333 265.972 39.5147 268.703 40.368C271.434 41.2213 273.951 42.3307 276.255 43.696C278.644 44.976 280.65 46.7253 282.271 48.944C283.978 51.1627 284.916 54.1493 285.087 57.904C285.258 60.8053 284.703 63.4507 283.423 65.84C282.228 68.2293 280.607 70.2773 278.559 71.984C276.511 73.6907 274.164 75.0133 271.519 75.952C268.874 76.8907 266.228 77.36 263.583 77.36C260.682 77.36 257.908 77.0187 255.263 76.336C252.618 75.6533 250.271 74.5867 248.223 73.136C246.175 71.6853 244.468 69.8933 243.103 67.76C241.738 65.5413 240.927 62.9813 240.671 60.08C240.586 59.312 240.799 58.6293 241.311 58.032C241.823 57.4347 242.506 57.136 243.359 57.136L250.399 56.88C251.082 56.88 251.679 57.136 252.191 57.648C252.703 58.0747 253.044 58.6293 253.215 59.312C253.642 62.2987 254.623 64.6453 256.159 66.352C257.78 67.9733 259.743 68.7413 262.047 68.656C263.327 68.5707 264.436 68.2293 265.375 67.632C266.314 66.9493 267.082 66.1387 267.679 65.2C268.276 64.176 268.66 63.1093 268.831 62C269.087 60.8053 269.087 59.6107 268.831 58.416C268.404 56.368 267.338 54.7893 265.631 53.68C264.01 52.4853 262.047 51.4613 259.743 50.608C257.439 49.7547 255.007 48.9013 252.447 48.048C249.972 47.1947 247.626 46.0427 245.407 44.592C243.188 43.1413 241.311 41.2213 239.775 38.832C238.324 36.4427 237.514 33.2427 237.343 29.232C237.172 25.8187 237.77 22.8747 239.135 20.4C240.5 17.84 242.292 15.7493 244.511 14.128C246.815 12.4213 249.375 11.184 252.191 10.416C255.007 9.648 257.78 9.30667 260.511 9.392C262.986 9.47733 265.418 9.94666 267.807 10.8C270.196 11.568 272.372 12.8053 274.335 14.512C276.298 16.1333 277.919 18.224 279.199 20.784C280.564 23.2587 281.375 26.2453 281.631 29.744C281.716 30.512 281.46 31.1947 280.863 31.792C280.266 32.304 279.583 32.56 278.815 32.56L272.287 32.432ZM335.622 54.192C336.305 54.2773 336.859 54.576 337.286 55.088C337.713 55.6 337.926 56.1973 337.926 56.88C337.926 58.2453 337.755 59.9947 337.414 62.128C337.073 64.176 336.347 66.224 335.238 68.272C334.129 70.32 332.507 72.1547 330.374 73.776C328.326 75.3973 325.51 76.464 321.926 76.976C317.318 77.5733 313.222 77.1893 309.638 75.824C306.139 74.3733 303.11 72.24 300.55 69.424C298.075 66.608 296.113 63.3227 294.662 59.568C293.211 55.728 292.273 51.76 291.846 47.664C291.419 43.4827 291.505 39.3867 292.102 35.376C292.699 31.28 293.809 27.568 295.43 24.24C297.051 20.8267 299.142 18.0107 301.702 15.792C304.347 13.488 307.462 12.08 311.046 11.568C314.886 11.056 318.171 11.2693 320.902 12.208C323.633 13.0613 325.937 14.4267 327.814 16.304C329.691 18.096 331.185 20.1867 332.294 22.576C333.403 24.9653 334.257 27.3973 334.854 29.872C335.451 32.2613 335.878 34.5653 336.134 36.784C336.39 38.9173 336.518 40.6667 336.518 42.032C336.518 42.7147 336.262 43.312 335.75 43.824C335.323 44.336 334.769 44.6347 334.086 44.72L311.43 47.92C310.662 48.0053 310.022 48.3893 309.51 49.072C309.083 49.6693 308.955 50.3093 309.126 50.992C309.297 53.4667 309.681 55.8133 310.278 58.032C310.875 60.1653 311.601 62.0853 312.454 63.792C313.393 65.4133 314.459 66.6933 315.654 67.632C316.934 68.5707 318.299 69.04 319.75 69.04C321.457 69.04 322.865 68.5707 323.974 67.632C325.169 66.6933 326.107 65.5413 326.79 64.176C327.558 62.8107 328.113 61.4027 328.454 59.952C328.881 58.5013 329.179 57.264 329.35 56.24C329.521 55.5573 329.862 55.0027 330.374 54.576C330.886 54.064 331.483 53.8507 332.166 53.936L335.622 54.192ZM313.094 19.376C311.985 19.632 311.046 20.272 310.278 21.296C309.51 22.32 308.87 23.6427 308.358 25.264C307.931 26.8853 307.675 28.72 307.59 30.768C307.505 32.816 307.59 34.992 307.846 37.296C308.017 38.1493 308.315 38.832 308.742 39.344C309.254 39.856 309.937 40.0693 310.79 39.984L320.902 38.832C321.67 38.7467 322.267 38.448 322.694 37.936C323.206 37.3387 323.419 36.6987 323.334 36.016C323.249 34.5653 322.993 32.8587 322.566 30.896C322.225 28.848 321.67 26.928 320.902 25.136C320.134 23.2587 319.11 21.7653 317.83 20.656C316.55 19.4613 314.971 19.0347 313.094 19.376Z" fill="#F4711F"/>
</svg>
