<svg width="250" height="97" viewBox="0 0 250 97" fill="none" xmlns="http://www.w3.org/2000/svg">
<path d="M208.304 81.288L198.064 78.472C197.381 78.3013 196.827 77.9173 196.4 77.32C195.973 76.7227 195.888 76.04 196.144 75.272L212.4 7.56C212.827 6.19467 213.637 5.512 214.832 5.512L228.016 5C229.381 5 230.277 5.64 230.704 6.92L249.264 72.584C249.435 73.2667 249.349 73.9493 249.008 74.632C248.667 75.2293 248.112 75.6133 247.344 75.784L241.2 77.448C240.517 77.6187 239.835 77.5333 239.152 77.192C238.555 76.8507 238.171 76.3387 238 75.656L233.52 60.552C233.435 60.296 233.264 60.04 233.008 59.784C232.752 59.528 232.453 59.4427 232.112 59.528L216.496 61.448C215.984 61.448 215.643 61.7893 215.472 62.472L211.504 79.368C211.077 80.904 210.011 81.544 208.304 81.288ZM219.44 53.128L229.424 51.848C230.363 51.5067 230.704 50.9093 230.448 50.056L225.072 31.368C224.901 30.6853 224.475 30.3867 223.792 30.472C223.109 30.472 222.683 30.8133 222.512 31.496L218.032 51.464C217.861 51.976 217.947 52.4027 218.288 52.744C218.629 53.0853 219.013 53.2133 219.44 53.128Z" fill="url(#paint0_linear_273_16)"/>
<path d="M208.304 81.288L198.064 78.472C197.381 78.3013 196.827 77.9173 196.4 77.32C195.973 76.7227 195.888 76.04 196.144 75.272L212.4 7.56C212.827 6.19467 213.637 5.512 214.832 5.512L228.016 5C229.381 5 230.277 5.64 230.704 6.92L249.264 72.584C249.435 73.2667 249.349 73.9493 249.008 74.632C248.667 75.2293 248.112 75.6133 247.344 75.784L241.2 77.448C240.517 77.6187 239.835 77.5333 239.152 77.192C238.555 76.8507 238.171 76.3387 238 75.656L233.52 60.552C233.435 60.296 233.264 60.04 233.008 59.784C232.752 59.528 232.453 59.4427 232.112 59.528L216.496 61.448C215.984 61.448 215.643 61.7893 215.472 62.472L211.504 79.368C211.077 80.904 210.011 81.544 208.304 81.288ZM219.44 53.128L229.424 51.848C230.363 51.5067 230.704 50.9093 230.448 50.056L225.072 31.368C224.901 30.6853 224.475 30.3867 223.792 30.472C223.109 30.472 222.683 30.8133 222.512 31.496L218.032 51.464C217.861 51.976 217.947 52.4027 218.288 52.744C218.629 53.0853 219.013 53.2133 219.44 53.128Z" fill="url(#paint1_linear_273_16)"/>
<path d="M189.184 73.5691L183.564 75.6502C182.201 76.0849 181.133 75.7072 180.358 74.5171L164.463 49.0102C164.118 48.3295 163.605 48.1619 162.924 48.5072C162.498 48.6804 162.03 48.8111 161.518 48.8995C161.092 48.902 160.666 48.9898 160.24 49.163C159.558 49.3377 159.219 49.7664 159.223 50.449L160.274 76.6833C160.363 77.3655 160.153 77.964 159.644 78.479C159.221 78.9935 158.668 79.3381 157.987 79.5128L148.265 80.594C147.498 80.7692 146.814 80.6026 146.214 80.0941C145.699 79.5851 145.396 78.9469 145.306 78.1794L142.094 10.8692C141.919 10.1022 142.043 9.46143 142.467 8.94693C142.976 8.43192 143.571 8.12975 144.254 8.04039C145.533 7.8622 147.153 7.68199 149.115 7.49978C151.161 7.31706 153.422 7.21842 155.897 7.20385C158.969 7.18577 162.17 7.38027 165.501 7.78734C168.916 8.19391 172.036 9.0289 174.859 10.2923C177.768 11.4699 180.21 13.1622 182.185 15.3693C184.161 17.5763 185.287 20.4711 185.565 24.0535C185.929 27.8915 185.351 31.2229 183.831 34.0479C182.312 36.8729 180.236 39.3172 177.602 41.3807C177.093 41.8957 177.011 42.4509 177.356 43.0462L190.57 69.8489C191.001 70.529 191.048 71.2541 190.711 72.0241C190.374 72.7941 189.865 73.3091 189.184 73.5691ZM172.649 26.1776C172.373 22.7658 171.035 20.2137 168.636 18.5211C166.236 16.8285 163.073 15.8658 159.147 15.6329C158.123 15.6389 157.613 16.0686 157.618 16.9219L158.77 38.6755C158.773 39.1875 158.946 39.5705 159.289 39.8245C159.632 40.0784 160.016 40.1188 160.442 39.9457C164.613 38.2998 167.716 36.3188 169.751 34.0028C171.87 31.6009 172.836 28.9925 172.649 26.1776Z" fill="url(#paint2_linear_273_16)"/>
<path d="M189.184 73.5691L183.564 75.6502C182.201 76.0849 181.133 75.7072 180.358 74.5171L164.463 49.0102C164.118 48.3295 163.605 48.1619 162.924 48.5072C162.498 48.6804 162.03 48.8111 161.518 48.8995C161.092 48.902 160.666 48.9898 160.24 49.163C159.558 49.3377 159.219 49.7664 159.223 50.449L160.274 76.6833C160.363 77.3655 160.153 77.964 159.644 78.479C159.221 78.9935 158.668 79.3381 157.987 79.5128L148.265 80.594C147.498 80.7692 146.814 80.6026 146.214 80.0941C145.699 79.5851 145.396 78.9469 145.306 78.1794L142.094 10.8692C141.919 10.1022 142.043 9.46143 142.467 8.94693C142.976 8.43192 143.571 8.12975 144.254 8.04039C145.533 7.8622 147.153 7.68199 149.115 7.49978C151.161 7.31706 153.422 7.21842 155.897 7.20385C158.969 7.18577 162.17 7.38027 165.501 7.78734C168.916 8.19391 172.036 9.0289 174.859 10.2923C177.768 11.4699 180.21 13.1622 182.185 15.3693C184.161 17.5763 185.287 20.4711 185.565 24.0535C185.929 27.8915 185.351 31.2229 183.831 34.0479C182.312 36.8729 180.236 39.3172 177.602 41.3807C177.093 41.8957 177.011 42.4509 177.356 43.0462L190.57 69.8489C191.001 70.529 191.048 71.2541 190.711 72.0241C190.374 72.7941 189.865 73.3091 189.184 73.5691ZM172.649 26.1776C172.373 22.7658 171.035 20.2137 168.636 18.5211C166.236 16.8285 163.073 15.8658 159.147 15.6329C158.123 15.6389 157.613 16.0686 157.618 16.9219L158.77 38.6755C158.773 39.1875 158.946 39.5705 159.289 39.8245C159.632 40.0784 160.016 40.1188 160.442 39.9457C164.613 38.2998 167.716 36.3188 169.751 34.0028C171.87 31.6009 172.836 28.9925 172.649 26.1776Z" fill="url(#paint3_linear_273_16)"/>
<path d="M119.567 37.8691C116.915 27.3047 106.243 20.9101 95.7208 23.5714C85.2317 26.2534 78.8864 36.9871 81.5244 47.576C84.1884 58.1282 94.8565 64.5286 105.363 61.869C115.858 59.1916 122.218 48.4363 119.567 37.8691ZM110.904 78.6473C103.363 80.5732 95.7776 79.9307 89.0564 77.267C84.4872 75.4562 80.3174 72.7112 76.8329 69.204C72.4272 64.7696 69.1171 59.1167 67.48 52.593C62.635 33.3315 74.2195 13.7617 93.3536 8.88617C112.495 4.01345 131.923 15.6699 136.78 34.94C141.621 54.2141 130.03 73.7762 110.904 78.6473Z" fill="url(#paint4_linear_273_16)"/>
<path d="M76.8329 69.204L67.48 90.5001L76.0002 95.0001L89.0564 77.267C84.4872 75.4562 80.3174 72.7112 76.8329 69.204Z" fill="url(#paint5_linear_273_16)"/>
<path d="M7.01979 9.21049C6.91756 8.51427 7.10407 7.93255 7.57933 7.46531C8.06305 6.91316 8.65301 6.58596 9.34922 6.48373C11.854 6.30418 14.2187 6.23933 16.4433 6.28917C18.7614 6.26256 21.0243 6.35909 23.232 6.57876C28.8364 7.1364 33.9018 8.36933 38.4285 10.2776C43.0485 12.1093 46.9173 14.5953 50.0351 17.7354C53.2462 20.7991 55.6637 24.5127 57.2877 28.8762C58.92 33.1549 59.6357 38.0284 59.4346 43.4967C59.2255 49.9075 57.7678 55.508 55.0616 60.2982C52.3638 65.0036 48.7612 68.89 44.2541 71.9575C39.7469 75.0249 34.509 77.2479 28.5405 78.6264C22.5805 79.92 16.2337 80.3604 9.50015 79.9477C8.81239 79.965 8.19243 79.7318 7.64028 79.2481C7.18149 78.6879 6.94766 78.0215 6.93878 77.2488L7.01979 9.21049ZM23.3646 68.5926C23.433 69.6285 23.9002 70.1037 24.7663 70.0184C31.338 69.4717 36.495 66.769 40.2371 61.9104C44.0641 57.0601 46.0138 50.3937 46.086 41.9112C46.1667 33.3437 44.3209 26.9 40.5488 22.58C36.7767 18.2599 31.4729 15.9742 24.6376 15.7229C23.8733 15.6468 23.4405 16.1183 23.3391 17.1373L23.3646 68.5926Z" fill="url(#paint6_linear_273_16)" fill-opacity="0.55"/>
<path d="M7.01979 9.21049C6.91756 8.51427 7.10407 7.93255 7.57933 7.46531C8.06305 6.91316 8.65301 6.58596 9.34922 6.48373C11.854 6.30418 14.2187 6.23933 16.4433 6.28917C18.7614 6.26256 21.0243 6.35909 23.232 6.57876C28.8364 7.1364 33.9018 8.36933 38.4285 10.2776C43.0485 12.1093 46.9173 14.5953 50.0351 17.7354C53.2462 20.7991 55.6637 24.5127 57.2877 28.8762C58.92 33.1549 59.6357 38.0284 59.4346 43.4967C59.2255 49.9075 57.7678 55.508 55.0616 60.2982C52.3638 65.0036 48.7612 68.89 44.2541 71.9575C39.7469 75.0249 34.509 77.2479 28.5405 78.6264C22.5805 79.92 16.2337 80.3604 9.50015 79.9477C8.81239 79.965 8.19243 79.7318 7.64028 79.2481C7.18149 78.6879 6.94766 78.0215 6.93878 77.2488L7.01979 9.21049ZM23.3646 68.5926C23.433 69.6285 23.9002 70.1037 24.7663 70.0184C31.338 69.4717 36.495 66.769 40.2371 61.9104C44.0641 57.0601 46.0138 50.3937 46.086 41.9112C46.1667 33.3437 44.3209 26.9 40.5488 22.58C36.7767 18.2599 31.4729 15.9742 24.6376 15.7229C23.8733 15.6468 23.4405 16.1183 23.3391 17.1373L23.3646 68.5926Z" fill="url(#paint7_linear_273_16)"/>
<defs>
<linearGradient id="paint0_linear_273_16" x1="222.675" y1="5" x2="222.675" y2="81.3429" gradientUnits="userSpaceOnUse">
<stop stop-color="#D9D9D9"/>
<stop offset="1" stop-color="#D9D9D9" stop-opacity="0"/>
</linearGradient>
<linearGradient id="paint1_linear_273_16" x1="221.788" y1="81.594" x2="239.996" y2="0.390992" gradientUnits="userSpaceOnUse">
<stop stop-color="#1D743A"/>
<stop offset="0.14835" stop-color="#2B8937"/>
<stop offset="0.59341" stop-color="#70C72D"/>
<stop offset="1" stop-color="#94D222"/>
</linearGradient>
<linearGradient id="paint2_linear_273_16" x1="166.278" y1="7.14275" x2="166.71" y2="80.5495" gradientUnits="userSpaceOnUse">
<stop stop-color="#D9D9D9"/>
<stop offset="1" stop-color="#D9D9D9" stop-opacity="0"/>
</linearGradient>
<linearGradient id="paint3_linear_273_16" x1="164.019" y1="62.5308" x2="173.363" y2="6.71803" gradientUnits="userSpaceOnUse">
<stop stop-color="#E63E23"/>
<stop offset="0.63187" stop-color="#F4711F"/>
<stop offset="1" stop-color="#F68B1C"/>
</linearGradient>
<linearGradient id="paint4_linear_273_16" x1="105.954" y1="74.2912" x2="98.3441" y2="17.1634" gradientUnits="userSpaceOnUse">
<stop stop-color="#145FA6"/>
<stop offset="0.89011" stop-color="#0499DB"/>
<stop offset="1" stop-color="#01A0E0"/>
</linearGradient>
<linearGradient id="paint5_linear_273_16" x1="81.0257" y1="93.708" x2="101.549" y2="59.7659" gradientUnits="userSpaceOnUse">
<stop stop-color="#E63E23"/>
<stop offset="0.651042" stop-color="#F4711F"/>
<stop offset="1" stop-color="#F68B1C"/>
</linearGradient>
<linearGradient id="paint6_linear_273_16" x1="133.898" y1="22.1084" x2="124.69" y2="114.651" gradientUnits="userSpaceOnUse">
<stop stop-color="#1F77B4"/>
<stop offset="1" stop-color="#1F77B4" stop-opacity="0"/>
</linearGradient>
<linearGradient id="paint7_linear_273_16" x1="166.867" y1="101.77" x2="170.593" y2="30.4509" gradientUnits="userSpaceOnUse">
<stop/>
<stop offset="0.11539" stop-color="#753893"/>
<stop offset="0.7033" stop-color="#9968BB"/>
<stop offset="1" stop-color="#AA7EC6"/>
</linearGradient>
</defs>
</svg>
