<svg width="1080" height="639" viewBox="0 0 1080 639" fill="none" xmlns="http://www.w3.org/2000/svg">
<path d="M167.198 211.474L253.883 51.041" stroke="white" stroke-width="2.8496" stroke-miterlimit="10"/>
<path d="M167.198 211.474L253.883 183.234" stroke="white" stroke-width="2.8496" stroke-miterlimit="10"/>
<path d="M167.198 211.473L253.883 315.455" stroke="white" stroke-width="2.8496" stroke-miterlimit="10"/>
<path d="M167.198 211.473L253.883 452.949" stroke="white" stroke-width="2.8496" stroke-miterlimit="10"/>
<path d="M167.198 211.473L253.883 586.595" stroke="white" stroke-width="2.8496" stroke-miterlimit="10"/>
<path d="M167.198 315.456L253.883 51.041" stroke="white" stroke-width="2.8496" stroke-miterlimit="10"/>
<path d="M167.198 315.456L253.883 183.234" stroke="white" stroke-width="2.8496" stroke-miterlimit="10"/>
<path d="M167.198 315.455H253.883" stroke="white" stroke-width="2.8496" stroke-miterlimit="10"/>
<path d="M167.198 315.455H253.883" stroke="white" stroke-width="2.8496" stroke-miterlimit="10"/>
<path d="M167.198 315.455L253.883 452.948" stroke="white" stroke-width="2.8496" stroke-miterlimit="10"/>
<path d="M167.198 315.455L253.883 586.594" stroke="white" stroke-width="2.8496" stroke-miterlimit="10"/>
<path d="M167.198 419.438L253.883 51.041" stroke="white" stroke-width="2.8496" stroke-miterlimit="10"/>
<path d="M167.198 419.438L253.883 183.234" stroke="white" stroke-width="2.8496" stroke-miterlimit="10"/>
<path d="M167.198 419.437L253.883 315.455" stroke="white" stroke-width="2.8496" stroke-miterlimit="10"/>
<path d="M167.198 419.438L253.883 452.949" stroke="white" stroke-width="2.8496" stroke-miterlimit="10"/>
<path d="M167.198 419.438L253.883 600.615" stroke="white" stroke-width="2.8496" stroke-miterlimit="10"/>
<path d="M344.802 586.62L431.487 426.187" stroke="white" stroke-width="2.8496" stroke-miterlimit="10"/>
<path d="M344.802 454.427L431.487 426.187" stroke="white" stroke-width="2.8496" stroke-miterlimit="10"/>
<path d="M344.802 322.204L431.487 426.186" stroke="white" stroke-width="2.8496" stroke-miterlimit="10"/>
<path d="M344.802 184.711L431.487 426.186" stroke="white" stroke-width="2.8496" stroke-miterlimit="10"/>
<path d="M344.802 51.0645L431.487 426.186" stroke="white" stroke-width="2.8496" stroke-miterlimit="10"/>
<path d="M344.802 586.619L431.487 322.204" stroke="white" stroke-width="2.8496" stroke-miterlimit="10"/>
<path d="M344.802 454.426L431.487 322.204" stroke="white" stroke-width="2.8496" stroke-miterlimit="10"/>
<path d="M344.802 322.204H431.487" stroke="white" stroke-width="2.8496" stroke-miterlimit="10"/>
<path d="M344.802 322.204H431.487" stroke="white" stroke-width="2.8496" stroke-miterlimit="10"/>
<path d="M344.802 184.711L431.487 322.204" stroke="white" stroke-width="2.8496" stroke-miterlimit="10"/>
<path d="M344.802 51.0645L431.487 322.204" stroke="white" stroke-width="2.8496" stroke-miterlimit="10"/>
<path d="M344.802 586.618L431.487 218.222" stroke="white" stroke-width="2.8496" stroke-miterlimit="10"/>
<path d="M344.802 454.425L431.487 218.222" stroke="white" stroke-width="2.8496" stroke-miterlimit="10"/>
<path d="M344.802 322.205L431.487 218.223" stroke="white" stroke-width="2.8496" stroke-miterlimit="10"/>
<path d="M344.802 184.711L431.487 218.222" stroke="white" stroke-width="2.8496" stroke-miterlimit="10"/>
<path d="M344.802 37.0449L431.487 218.223" stroke="white" stroke-width="2.8496" stroke-miterlimit="10"/>
<path d="M62.3906 315.626L110.52 315.455" stroke="white" stroke-width="2.8496" stroke-miterlimit="10"/>
<path d="M62.3906 315.626L110.52 211.473" stroke="white" stroke-width="2.8496" stroke-miterlimit="10"/>
<path d="M62.3906 315.627L110.52 419.438" stroke="white" stroke-width="2.8496" stroke-miterlimit="10"/>
<path d="M299.22 631.937C324.262 631.937 344.562 611.637 344.562 586.595C344.562 561.554 324.262 541.254 299.22 541.254C274.179 541.254 253.879 561.554 253.879 586.595C253.879 611.637 274.179 631.937 299.22 631.937Z" fill="#A6C9FB" stroke="white" stroke-width="8.54881"/>
<path d="M297.653 595.823H301.607V600.771H297.653V595.823ZM301.49 592.959H297.77V589.959C297.77 588.648 297.952 587.57 298.315 586.726C298.679 585.882 299.445 584.901 300.614 583.784L302.367 582.051C303.107 581.362 303.64 580.713 303.964 580.103C304.302 579.492 304.471 578.869 304.471 578.232C304.471 577.077 304.042 576.142 303.185 575.427C302.341 574.713 301.218 574.356 299.815 574.356C298.789 574.356 297.692 574.583 296.523 575.038C295.367 575.492 294.159 576.155 292.9 577.025V573.363C294.121 572.622 295.354 572.07 296.601 571.707C297.861 571.343 299.159 571.161 300.497 571.161C302.886 571.161 304.802 571.791 306.243 573.051C307.698 574.311 308.425 575.973 308.425 578.038C308.425 579.025 308.191 579.966 307.724 580.862C307.256 581.745 306.438 582.745 305.269 583.862L303.555 585.537C302.945 586.148 302.51 586.628 302.25 586.979C302.003 587.317 301.828 587.648 301.724 587.972C301.646 588.245 301.588 588.576 301.549 588.966C301.51 589.355 301.49 589.888 301.49 590.563V592.959Z" fill="black"/>
<path d="M299.22 498.29C324.262 498.29 344.562 477.99 344.562 452.949C344.562 427.907 324.262 407.607 299.22 407.607C274.179 407.607 253.879 427.907 253.879 452.949C253.879 477.99 274.179 498.29 299.22 498.29Z" fill="#A6C9FB" stroke="white" stroke-width="8.54881"/>
<path d="M297.653 459.041H301.607V463.989H297.653V459.041ZM301.49 456.178H297.77V453.178C297.77 451.866 297.952 450.789 298.315 449.944C298.679 449.1 299.445 448.12 300.614 447.003L302.367 445.269C303.107 444.581 303.64 443.932 303.964 443.321C304.302 442.711 304.471 442.088 304.471 441.451C304.471 440.295 304.042 439.36 303.185 438.646C302.341 437.932 301.218 437.575 299.815 437.575C298.789 437.575 297.692 437.802 296.523 438.257C295.367 438.711 294.159 439.373 292.9 440.243V436.581C294.121 435.841 295.354 435.289 296.601 434.926C297.861 434.562 299.159 434.38 300.497 434.38C302.886 434.38 304.802 435.01 306.243 436.27C307.698 437.529 308.425 439.192 308.425 441.256C308.425 442.243 308.191 443.185 307.724 444.081C307.256 444.964 306.438 445.964 305.269 447.081L303.555 448.756C302.945 449.366 302.51 449.847 302.25 450.198C302.003 450.535 301.828 450.866 301.724 451.191C301.646 451.464 301.588 451.795 301.549 452.185C301.51 452.574 301.49 453.107 301.49 453.782V456.178Z" fill="black"/>
<path d="M299.22 360.797C324.262 360.797 344.562 340.497 344.562 315.456C344.562 290.414 324.262 270.114 299.22 270.114C274.179 270.114 253.879 290.414 253.879 315.456C253.879 340.497 274.179 360.797 299.22 360.797Z" fill="#A6C9FB" stroke="white" stroke-width="8.54881"/>
<path d="M299.22 228.575C324.262 228.575 344.562 208.275 344.562 183.234C344.562 158.193 324.262 137.893 299.22 137.893C274.179 137.893 253.879 158.193 253.879 183.234C253.879 208.275 274.179 228.575 299.22 228.575Z" fill="#A6C9FB" stroke="white" stroke-width="8.54881"/>
<path d="M299.22 96.3819C324.262 96.3819 344.562 76.0819 344.562 51.0406C344.562 25.9992 324.262 5.69922 299.22 5.69922C274.179 5.69922 253.879 25.9992 253.879 51.0406C253.879 76.0819 274.179 96.3819 299.22 96.3819Z" fill="#A6C9FB" stroke="white" stroke-width="8.54881"/>
<path d="M138.874 239.811C154.524 239.811 167.211 227.124 167.211 211.473C167.211 195.823 154.524 183.136 138.874 183.136C123.223 183.136 110.536 195.823 110.536 211.473C110.536 227.124 123.223 239.811 138.874 239.811Z" fill="#A6C9FB" stroke="white" stroke-width="8.54881"/>
<path d="M138.874 343.792C154.524 343.792 167.211 331.105 167.211 315.455C167.211 299.804 154.524 287.117 138.874 287.117C123.223 287.117 110.536 299.804 110.536 315.455C110.536 331.105 123.223 343.792 138.874 343.792Z" fill="#A6C9FB" stroke="white" stroke-width="8.54881"/>
<path d="M138.874 447.775C154.524 447.775 167.211 435.088 167.211 419.437C167.211 403.787 154.524 391.1 138.874 391.1C123.223 391.1 110.536 403.787 110.536 419.437C110.536 435.088 123.223 447.775 138.874 447.775Z" fill="#A6C9FB" stroke="white" stroke-width="8.54881"/>
<path d="M34.0368 343.963C49.6872 343.963 62.3744 331.276 62.3744 315.626C62.3744 299.975 49.6872 287.288 34.0368 287.288C18.3864 287.288 5.69922 299.975 5.69922 315.626C5.69922 331.276 18.3864 343.963 34.0368 343.963Z" fill="#A6C9FB" stroke="white" stroke-width="8.54881"/>
<path d="M297.653 191.179H301.607V196.126H297.653V191.179ZM301.49 188.315H297.77V185.315C297.77 184.004 297.952 182.926 298.315 182.082C298.679 181.237 299.445 180.257 300.614 179.14L302.367 177.406C303.107 176.718 303.64 176.069 303.964 175.458C304.302 174.848 304.471 174.225 304.471 173.588C304.471 172.433 304.042 171.498 303.185 170.783C302.341 170.069 301.218 169.712 299.815 169.712C298.789 169.712 297.692 169.939 296.523 170.394C295.367 170.848 294.159 171.511 292.9 172.381V168.719C294.121 167.978 295.354 167.426 296.601 167.063C297.861 166.699 299.159 166.517 300.497 166.517C302.886 166.517 304.802 167.147 306.243 168.407C307.698 169.667 308.425 171.329 308.425 173.394C308.425 174.381 308.191 175.322 307.724 176.218C307.256 177.101 306.438 178.101 305.269 179.218L303.555 180.893C302.945 181.504 302.51 181.984 302.25 182.335C302.003 182.672 301.828 183.004 301.724 183.328C301.646 183.601 301.588 183.932 301.549 184.322C301.51 184.711 301.49 185.244 301.49 185.919V188.315Z" fill="black"/>
<path d="M297.653 325.11H301.607V330.058H297.653V325.11ZM301.49 322.247H297.77V319.247C297.77 317.935 297.952 316.857 298.315 316.013C298.679 315.169 299.445 314.189 300.614 313.072L302.367 311.338C303.107 310.65 303.64 310 303.964 309.39C304.302 308.78 304.471 308.156 304.471 307.52C304.471 306.364 304.042 305.429 303.185 304.715C302.341 304.001 301.218 303.644 299.815 303.644C298.789 303.644 297.692 303.871 296.523 304.325C295.367 304.78 294.159 305.442 292.9 306.312V302.65C294.121 301.91 295.354 301.358 296.601 300.994C297.861 300.631 299.159 300.449 300.497 300.449C302.886 300.449 304.802 301.079 306.243 302.338C307.698 303.598 308.425 305.26 308.425 307.325C308.425 308.312 308.191 309.254 307.724 310.15C307.256 311.033 306.438 312.033 305.269 313.15L303.555 314.825C302.945 315.435 302.51 315.916 302.25 316.266C302.003 316.604 301.828 316.935 301.724 317.26C301.646 317.533 301.588 317.864 301.549 318.253C301.51 318.643 301.49 319.175 301.49 319.851V322.247Z" fill="black"/>
<path d="M458.628 244.749C474.278 244.749 486.965 232.062 486.965 216.411C486.965 200.761 474.278 188.074 458.628 188.074C442.977 188.074 430.29 200.761 430.29 216.411C430.29 232.062 442.977 244.749 458.628 244.749Z" fill="#A6C9FB" stroke="white" stroke-width="8.54881"/>
<path d="M458.628 348.732C474.278 348.732 486.965 336.045 486.965 320.394C486.965 304.744 474.278 292.057 458.628 292.057C442.977 292.057 430.29 304.744 430.29 320.394C430.29 336.045 442.977 348.732 458.628 348.732Z" fill="#A6C9FB" stroke="white" stroke-width="8.54881"/>
<path d="M458.628 452.713C474.278 452.713 486.965 440.026 486.965 424.376C486.965 408.725 474.278 396.038 458.628 396.038C442.977 396.038 430.29 408.725 430.29 424.376C430.29 440.026 442.977 452.713 458.628 452.713Z" fill="#A6C9FB" stroke="white" stroke-width="8.54881"/>
<path d="M297.653 60.0971H301.607V65.0449H297.653V60.0971ZM301.49 57.2336H297.77V54.2337C297.77 52.922 297.952 51.8442 298.315 51C298.679 50.1559 299.445 49.1754 300.614 48.0586L302.367 46.3249C303.107 45.6366 303.64 44.9873 303.964 44.3769C304.302 43.7666 304.471 43.1432 304.471 42.5069C304.471 41.3511 304.042 40.4161 303.185 39.7018C302.341 38.9876 301.218 38.6304 299.815 38.6304C298.789 38.6304 297.692 38.8577 296.523 39.3122C295.367 39.7667 294.159 40.4291 292.9 41.2991V37.637C294.121 36.8967 295.354 36.3448 296.601 35.9812C297.861 35.6176 299.159 35.4358 300.497 35.4358C302.886 35.4358 304.802 36.0656 306.243 37.3253C307.698 38.585 308.425 40.2472 308.425 42.3121C308.425 43.2991 308.191 44.2406 307.724 45.1367C307.256 46.0197 306.438 47.0197 305.269 48.1365L303.555 49.8118C302.945 50.4221 302.51 50.9026 302.25 51.2533C302.003 51.5909 301.828 51.9221 301.724 52.2467C301.646 52.5195 301.588 52.8506 301.549 53.2402C301.51 53.6298 301.49 54.1623 301.49 54.8376V57.2336Z" fill="black"/>
<path d="M399.8 60.3901C428.428 61.1058 456.395 66.385 484.341 72.43C551.602 86.9794 618.173 104.583 685.092 120.589C707.355 125.914 729.756 131.872 752.358 135.639C757.819 136.549 760.099 138.015 755.499 133.414" stroke="white" stroke-width="8.54881" stroke-linecap="round"/>
<path d="M397.444 62.7464C416.721 82.0226 437.772 99.8801 458.821 117.187C468.518 125.16 463.486 121.729 456.858 116.271C447.149 108.276 437.022 100.397 428.591 91.0139C419.843 81.2783 410.872 71.7037 402.287 61.8304C400.35 59.6029 391.261 53.2258 392.733 53.324C400.535 53.8441 407.366 58.3351 416.813 58.0352C432.188 57.5471 448.192 51.7095 461.962 45.0793C468.309 42.0235 473.262 36.6887 479.891 34.479" stroke="white" stroke-width="8.54881" stroke-linecap="round"/>
<path d="M696.788 161.249C696.788 161.382 696.788 161.635 696.788 162.007C696.788 162.353 696.748 162.832 696.668 163.444C696.003 163.577 695.471 163.816 695.072 164.162C694.673 164.507 694.354 165.053 694.115 165.797L686.575 187.42H684.061L677.798 171.383L670.657 187.42H668.143L660.085 163.803C659.473 163.616 658.755 163.497 657.93 163.444C657.824 162.858 657.771 162.393 657.771 162.047C657.771 161.702 657.784 161.436 657.811 161.249H670.537C670.723 162.021 670.816 162.752 670.816 163.444C669.486 163.55 668.649 163.776 668.303 164.122C667.984 164.468 667.824 164.827 667.824 165.199C667.824 165.545 667.891 165.904 668.024 166.276L671.415 176.25C671.654 176.888 671.814 177.673 671.893 178.604H672.013L679.114 162.446H681.628L686.535 175.931C686.907 176.941 687.106 177.832 687.133 178.604H687.253L692 163.922C690.99 163.63 690.205 163.47 689.646 163.444C689.7 162.646 689.793 161.914 689.926 161.249H696.788ZM719.219 174.574V184.468C720.31 184.761 721.201 184.907 721.892 184.907C721.892 185.066 721.892 185.346 721.892 185.745C721.892 186.117 721.826 186.596 721.693 187.181H710.881C710.855 186.968 710.842 186.675 710.842 186.303C710.842 185.931 710.908 185.465 711.041 184.907C711.733 184.774 712.238 184.548 712.557 184.229C712.876 183.909 713.036 183.351 713.036 182.553V175.372C713.036 174.335 712.796 173.564 712.318 173.058C711.839 172.526 711.214 172.26 710.443 172.26C708.9 172.26 707.703 173.457 706.852 175.851V184.508C707.49 184.774 708.235 184.907 709.086 184.907C709.086 185.066 709.086 185.332 709.086 185.705C709.086 186.077 709.033 186.569 708.927 187.181H697.956C697.956 186.968 697.956 186.662 697.956 186.263C697.956 185.838 698.022 185.386 698.155 184.907C698.98 184.774 699.605 184.548 700.03 184.229C700.456 183.883 700.669 183.324 700.669 182.553V162.247C700.376 162.194 699.99 162.167 699.512 162.167C699.033 162.167 698.528 162.18 697.996 162.207C698.049 161.249 698.168 160.505 698.355 159.973C700.908 159.069 703.74 158.563 706.852 158.457V171.861C708.182 169.468 710.243 168.271 713.036 168.271C714.898 168.271 716.387 168.829 717.504 169.946C718.648 171.063 719.219 172.606 719.219 174.574ZM730.485 181.995C730.485 182.58 730.632 183.058 730.924 183.431C731.243 183.776 731.722 183.949 732.36 183.949C733.025 183.949 733.624 183.63 734.156 182.992V178.604L733.038 178.963C731.336 179.494 730.485 180.505 730.485 181.995ZM743.571 185.146C742.853 185.997 742.148 186.636 741.456 187.061C740.791 187.487 739.954 187.699 738.943 187.699C737.932 187.699 736.988 187.5 736.11 187.101C735.259 186.675 734.674 186.104 734.355 185.386C733.132 186.928 731.589 187.699 729.727 187.699C727.892 187.699 726.456 187.221 725.419 186.263C724.408 185.279 723.903 184.029 723.903 182.513C723.903 179.747 725.764 177.992 729.488 177.247L734.156 176.33V175.133C734.156 173.404 733.145 172.54 731.124 172.54C729.661 172.54 728.131 172.806 726.536 173.337L725.259 171.462C727.626 169.335 730.432 168.271 733.677 168.271C735.884 168.271 737.533 168.856 738.624 170.026C739.741 171.196 740.299 172.859 740.299 175.013V182.074C740.299 183.378 740.712 184.029 741.536 184.029C741.669 184.029 742.161 183.949 743.012 183.79L743.571 185.146ZM751.979 187.62C750.33 187.62 749 187.128 747.99 186.144C747.006 185.133 746.513 183.657 746.513 181.715V171.901C745.795 171.795 744.971 171.742 744.04 171.742C744.013 171.502 744 171.21 744 170.864C744 170.518 744.04 170.146 744.12 169.747C744.678 169.481 745.463 169.215 746.474 168.949L751.42 162.606L752.697 162.965V168.829C754.399 168.776 755.968 168.643 757.405 168.43C757.405 169.76 757.272 170.837 757.006 171.662H752.697L752.737 181.596C752.737 182.34 752.857 182.859 753.096 183.151C753.362 183.444 753.827 183.59 754.492 183.59C755.184 183.59 755.995 183.271 756.926 182.633L758.003 183.989C756.274 186.41 754.266 187.62 751.979 187.62ZM778.34 187.699C776.079 187.699 774.045 186.902 772.236 185.306C770.454 183.683 769.563 181.37 769.563 178.364C769.563 175.332 770.574 172.899 772.595 171.063C774.643 169.202 777.116 168.271 780.015 168.271C781.771 168.271 783.513 168.643 785.242 169.388C785.215 170.797 785.002 172.726 784.603 175.173C784.098 175.173 783.606 175.106 783.127 174.973C782.994 173.803 782.635 172.885 782.05 172.22C781.465 171.555 780.747 171.223 779.896 171.223C777.396 171.223 776.146 173.351 776.146 177.606C776.146 181.835 777.489 183.949 780.175 183.949C781.611 183.949 783.313 183.564 785.282 182.792L786.199 184.229C785.188 185.266 783.978 186.104 782.569 186.742C781.186 187.38 779.776 187.699 778.34 187.699ZM800.89 178.923C800.89 173.657 799.68 171.024 797.26 171.024C795.105 171.024 794.028 173.045 794.028 177.088C794.028 177.38 794.028 177.673 794.028 177.965C794.214 182.566 795.451 184.867 797.738 184.867C798.909 184.867 799.72 184.362 800.172 183.351C800.651 182.314 800.89 180.838 800.89 178.923ZM797.499 168.271C800.478 168.271 802.885 169.095 804.72 170.744C806.582 172.367 807.512 174.774 807.512 177.965C807.512 181.13 806.582 183.537 804.72 185.186C802.858 186.808 800.438 187.62 797.459 187.62C794.48 187.62 792.06 186.808 790.198 185.186C788.363 183.537 787.446 181.13 787.446 177.965C787.446 174.774 788.376 172.367 790.238 170.744C792.1 169.095 794.52 168.271 797.499 168.271ZM830.682 174.574V184.468C831.773 184.761 832.664 184.907 833.355 184.907C833.355 185.066 833.355 185.346 833.355 185.745C833.355 186.117 833.289 186.596 833.156 187.181H822.344C822.318 186.968 822.305 186.675 822.305 186.303C822.305 185.931 822.371 185.465 822.504 184.907C823.196 184.774 823.701 184.548 824.02 184.229C824.339 183.909 824.499 183.351 824.499 182.553V175.372C824.499 174.335 824.259 173.564 823.781 173.058C823.302 172.526 822.677 172.26 821.906 172.26C820.363 172.26 819.166 173.457 818.315 175.851V184.508C818.953 184.774 819.698 184.907 820.549 184.907C820.549 185.066 820.549 185.332 820.549 185.705C820.549 186.077 820.496 186.569 820.39 187.181H809.419C809.419 186.968 809.419 186.662 809.419 186.263C809.419 185.838 809.485 185.386 809.618 184.907C810.443 184.774 811.068 184.548 811.493 184.229C811.919 183.883 812.131 183.324 812.131 182.553V172.26C811.732 172.207 811.294 172.181 810.815 172.181C810.363 172.181 809.911 172.194 809.459 172.22C809.512 171.29 809.631 170.558 809.818 170.026C812.238 169.149 814.884 168.63 817.757 168.47C817.996 169.774 818.156 170.97 818.235 172.061C819.512 169.534 821.6 168.271 824.499 168.271C826.36 168.271 827.85 168.829 828.967 169.946C830.111 171.063 830.682 172.606 830.682 174.574ZM843.714 187.699C841.453 187.699 839.419 186.902 837.61 185.306C835.828 183.683 834.937 181.37 834.937 178.364C834.937 175.332 835.948 172.899 837.969 171.063C840.017 169.202 842.49 168.271 845.389 168.271C847.145 168.271 848.887 168.643 850.616 169.388C850.589 170.797 850.376 172.726 849.977 175.173C849.472 175.173 848.98 175.106 848.501 174.973C848.368 173.803 848.009 172.885 847.424 172.22C846.839 171.555 846.121 171.223 845.27 171.223C842.77 171.223 841.52 173.351 841.52 177.606C841.52 181.835 842.863 183.949 845.549 183.949C846.985 183.949 848.687 183.564 850.655 182.792L851.573 184.229C850.562 185.266 849.352 186.104 847.943 186.742C846.56 187.38 845.15 187.699 843.714 187.699ZM862.633 171.223C860.958 171.223 859.921 172.673 859.522 175.572L862.633 175.332L864.429 175.252C864.402 172.566 863.804 171.223 862.633 171.223ZM859.402 177.726V177.806C859.402 181.928 860.945 183.989 864.03 183.989C865.652 183.989 867.501 183.59 869.575 182.792L870.493 184.229C868.232 186.543 865.493 187.699 862.274 187.699C860.067 187.699 857.992 186.955 856.051 185.465C855.093 184.747 854.309 183.776 853.697 182.553C853.112 181.33 852.819 179.96 852.819 178.444C852.819 175.359 853.817 172.899 855.812 171.063C857.806 169.202 860.24 168.271 863.112 168.271C865.027 168.271 866.703 168.803 868.139 169.867C869.788 171.063 870.612 173.138 870.612 176.09C870.4 176.728 870.134 177.274 869.814 177.726H859.402ZM881.465 184.348C882.183 184.721 883.047 184.907 884.058 184.907C885.068 184.907 885.946 184.335 886.691 183.191C887.435 182.021 887.808 180.252 887.808 177.885C887.808 175.518 887.475 173.896 886.81 173.018C886.146 172.114 885.414 171.662 884.616 171.662C883.845 171.662 883.167 172.008 882.582 172.699C881.997 173.391 881.624 174.255 881.465 175.292V184.348ZM875.241 192.088V172.26C874.816 172.207 874.377 172.181 873.925 172.181C873.472 172.181 873.034 172.194 872.608 172.22C872.661 171.29 872.781 170.558 872.967 170.026C875.387 169.149 877.98 168.63 880.746 168.47C880.959 169.375 881.119 170.252 881.225 171.103C882.475 169.215 884.204 168.271 886.412 168.271C888.646 168.271 890.534 169.122 892.077 170.824C893.619 172.526 894.39 174.853 894.39 177.806C894.39 180.758 893.327 183.138 891.199 184.947C889.071 186.729 886.505 187.62 883.499 187.62C882.728 187.62 882.05 187.527 881.465 187.34V193.604C882.475 194.109 883.659 194.388 885.015 194.442C885.042 194.628 885.055 194.894 885.055 195.24C885.055 195.612 884.989 196.104 884.856 196.716H872.528C872.528 196.529 872.528 196.224 872.528 195.798C872.528 195.372 872.608 194.92 872.768 194.442C873.592 194.309 874.204 194.083 874.603 193.763C875.028 193.444 875.241 192.886 875.241 192.088ZM904.077 187.62C902.428 187.62 901.098 187.128 900.087 186.144C899.103 185.133 898.611 183.657 898.611 181.715V171.901C897.893 171.795 897.069 171.742 896.138 171.742C896.111 171.502 896.098 171.21 896.098 170.864C896.098 170.518 896.138 170.146 896.217 169.747C896.776 169.481 897.561 169.215 898.571 168.949L903.518 162.606L904.795 162.965V168.829C906.497 168.776 908.066 168.643 909.502 168.43C909.502 169.76 909.369 170.837 909.103 171.662H904.795L904.835 181.596C904.835 182.34 904.954 182.859 905.194 183.151C905.46 183.444 905.925 183.59 906.59 183.59C907.281 183.59 908.093 183.271 909.024 182.633L910.101 183.989C908.372 186.41 906.364 187.62 904.077 187.62ZM929.4 187.62C927.751 187.62 926.422 187.128 925.411 186.144C924.427 185.133 923.935 183.657 923.935 181.715V171.901C923.217 171.795 922.392 171.742 921.461 171.742C921.435 171.502 921.421 171.21 921.421 170.864C921.421 170.518 921.461 170.146 921.541 169.747C922.1 169.481 922.884 169.215 923.895 168.949L928.842 162.606L930.118 162.965V168.829C931.821 168.776 933.39 168.643 934.826 168.43C934.826 169.76 934.693 170.837 934.427 171.662H930.118L930.158 181.596C930.158 182.34 930.278 182.859 930.517 183.151C930.783 183.444 931.249 183.59 931.914 183.59C932.605 183.59 933.416 183.271 934.347 182.633L935.424 183.989C933.696 186.41 931.688 187.62 929.4 187.62ZM958.274 174.574V184.468C959.365 184.761 960.256 184.907 960.947 184.907C960.947 185.066 960.947 185.346 960.947 185.745C960.947 186.117 960.881 186.596 960.748 187.181H949.937C949.91 186.968 949.897 186.675 949.897 186.303C949.897 185.931 949.963 185.465 950.096 184.907C950.788 184.774 951.293 184.548 951.612 184.229C951.931 183.909 952.091 183.351 952.091 182.553V175.372C952.091 174.335 951.851 173.564 951.373 173.058C950.894 172.526 950.269 172.26 949.498 172.26C947.955 172.26 946.758 173.457 945.907 175.851V184.508C946.546 184.774 947.29 184.907 948.141 184.907C948.141 185.066 948.141 185.332 948.141 185.705C948.141 186.077 948.088 186.569 947.982 187.181H937.011C937.011 186.968 937.011 186.662 937.011 186.263C937.011 185.838 937.077 185.386 937.21 184.907C938.035 184.774 938.66 184.548 939.085 184.229C939.511 183.883 939.724 183.324 939.724 182.553V162.247C939.431 162.194 939.045 162.167 938.567 162.167C938.088 162.167 937.583 162.18 937.051 162.207C937.104 161.249 937.224 160.505 937.41 159.973C939.963 159.069 942.795 158.563 945.907 158.457V171.861C947.237 169.468 949.298 168.271 952.091 168.271C953.953 168.271 955.442 168.829 956.559 169.946C957.703 171.063 958.274 172.606 958.274 174.574ZM972.213 163.404C972.213 164.361 971.881 165.186 971.216 165.877C970.551 166.542 969.727 166.875 968.742 166.875C967.785 166.875 966.961 166.542 966.269 165.877C965.578 165.186 965.232 164.361 965.232 163.404C965.232 162.42 965.578 161.595 966.269 160.93C966.961 160.239 967.785 159.893 968.742 159.893C969.727 159.893 970.551 160.239 971.216 160.93C971.881 161.595 972.213 162.42 972.213 163.404ZM974.088 184.907C974.088 185.066 974.088 185.332 974.088 185.705C974.088 186.077 974.035 186.569 973.929 187.181H962.958C962.958 186.968 962.958 186.662 962.958 186.263C962.958 185.838 963.024 185.386 963.157 184.907C963.982 184.774 964.607 184.548 965.032 184.229C965.458 183.883 965.671 183.324 965.671 182.553V172.22C965.272 172.167 964.833 172.141 964.354 172.141C963.902 172.141 963.45 172.154 962.998 172.181C963.051 171.25 963.171 170.505 963.357 169.946C965.937 169.069 968.769 168.563 971.854 168.43V184.508C972.493 184.774 973.237 184.907 974.088 184.907ZM982.739 184.907C983.537 184.907 984.175 184.721 984.654 184.348C985.159 183.949 985.412 183.444 985.412 182.832C985.412 182.194 985 181.569 984.175 180.957C983.351 180.319 982.433 179.774 981.423 179.322C980.439 178.843 979.534 178.138 978.71 177.207C977.885 176.276 977.473 175.199 977.473 173.976C977.473 172.087 978.138 170.665 979.468 169.707C980.824 168.75 982.713 168.271 985.133 168.271C986.675 168.271 988.311 168.55 990.04 169.109C990.04 169.481 990.04 170.119 990.04 171.024C990.04 171.928 989.96 173.045 989.8 174.375C989.109 174.375 988.457 174.308 987.846 174.175C987.899 173.856 987.925 173.55 987.925 173.258C987.925 171.609 987.061 170.784 985.332 170.784C984.721 170.784 984.202 170.957 983.776 171.303C983.377 171.622 983.178 172.114 983.178 172.779C983.178 173.417 983.604 174.029 984.455 174.614C985.332 175.173 986.276 175.665 987.287 176.09C988.324 176.489 989.269 177.167 990.12 178.125C990.997 179.082 991.436 180.239 991.436 181.596C991.436 183.351 990.652 184.814 989.082 185.984C987.54 187.128 985.585 187.699 983.218 187.699C980.851 187.699 978.816 187.447 977.114 186.941C977.087 186.383 977.074 185.652 977.074 184.747C977.074 183.816 977.141 182.659 977.274 181.276C977.806 181.276 978.497 181.33 979.348 181.436C979.348 181.516 979.348 181.755 979.348 182.154C979.348 182.553 979.441 182.992 979.627 183.471C979.84 183.949 980.173 184.295 980.625 184.508C981.236 184.774 981.941 184.907 982.739 184.907ZM633.753 231.271C633.886 231.723 633.952 232.454 633.952 233.465C633.952 234.476 633.806 235.646 633.513 236.976C629.444 236.976 627.197 238.359 626.771 241.125V247.189C627.729 247.561 628.872 247.8 630.202 247.907C630.202 248.066 630.202 248.332 630.202 248.705C630.202 249.077 630.149 249.569 630.042 250.181H617.875C617.875 249.968 617.875 249.662 617.875 249.263C617.875 248.838 617.941 248.386 618.074 247.907C618.899 247.774 619.524 247.548 619.949 247.229C620.375 246.883 620.587 246.324 620.587 245.553V235.26C620.188 235.207 619.75 235.181 619.271 235.181C618.819 235.181 618.367 235.194 617.914 235.22C617.968 234.29 618.087 233.558 618.274 233.026C620.694 232.149 623.34 231.63 626.213 231.47C626.532 233.305 626.718 235.167 626.771 237.056C627.409 235.353 628.34 233.97 629.564 232.907C630.814 231.816 632.21 231.271 633.753 231.271ZM644.324 234.223C642.649 234.223 641.611 235.673 641.213 238.572L644.324 238.332L646.12 238.252C646.093 235.566 645.495 234.223 644.324 234.223ZM641.093 240.726V240.806C641.093 244.928 642.635 246.989 645.721 246.989C647.343 246.989 649.191 246.59 651.266 245.792L652.184 247.229C649.923 249.543 647.183 250.699 643.965 250.699C641.758 250.699 639.683 249.955 637.742 248.465C636.784 247.747 636 246.776 635.388 245.553C634.803 244.33 634.51 242.96 634.51 241.444C634.51 238.359 635.508 235.899 637.502 234.063C639.497 232.202 641.931 231.271 644.803 231.271C646.718 231.271 648.394 231.803 649.83 232.867C651.479 234.063 652.303 236.138 652.303 239.09C652.09 239.728 651.824 240.274 651.505 240.726H641.093ZM663.155 247.348C663.874 247.721 664.738 247.907 665.749 247.907C666.759 247.907 667.637 247.335 668.382 246.191C669.126 245.021 669.499 243.252 669.499 240.885C669.499 238.518 669.166 236.896 668.501 236.018C667.836 235.114 667.105 234.662 666.307 234.662C665.536 234.662 664.858 235.008 664.272 235.699C663.687 236.391 663.315 237.255 663.155 238.292V247.348ZM656.932 255.088V235.26C656.506 235.207 656.067 235.181 655.615 235.181C655.163 235.181 654.724 235.194 654.299 235.22C654.352 234.29 654.472 233.558 654.658 233.026C657.078 232.149 659.671 231.63 662.437 231.47C662.65 232.375 662.81 233.252 662.916 234.103C664.166 232.215 665.895 231.271 668.102 231.271C670.336 231.271 672.225 232.122 673.767 233.824C675.31 235.526 676.081 237.853 676.081 240.806C676.081 243.758 675.017 246.138 672.89 247.947C670.762 249.729 668.195 250.62 665.19 250.62C664.419 250.62 663.741 250.527 663.155 250.34V256.604C664.166 257.109 665.35 257.388 666.706 257.442C666.733 257.628 666.746 257.894 666.746 258.24C666.746 258.612 666.679 259.104 666.546 259.716H654.219C654.219 259.529 654.219 259.224 654.219 258.798C654.219 258.372 654.299 257.92 654.458 257.442C655.283 257.309 655.895 257.083 656.294 256.763C656.719 256.444 656.932 255.886 656.932 255.088ZM693.906 231.271C694.039 231.723 694.105 232.454 694.105 233.465C694.105 234.476 693.959 235.646 693.667 236.976C689.597 236.976 687.35 238.359 686.924 241.125V247.189C687.882 247.561 689.026 247.8 690.355 247.907C690.355 248.066 690.355 248.332 690.355 248.705C690.355 249.077 690.302 249.569 690.196 250.181H678.028C678.028 249.968 678.028 249.662 678.028 249.263C678.028 248.838 678.094 248.386 678.227 247.907C679.052 247.774 679.677 247.548 680.102 247.229C680.528 246.883 680.741 246.324 680.741 245.553V235.26C680.342 235.207 679.903 235.181 679.424 235.181C678.972 235.181 678.52 235.194 678.068 235.22C678.121 234.29 678.241 233.558 678.427 233.026C680.847 232.149 683.493 231.63 686.366 231.47C686.685 233.305 686.871 235.167 686.924 237.056C687.563 235.353 688.494 233.97 689.717 232.907C690.967 231.816 692.363 231.271 693.906 231.271ZM704.478 234.223C702.802 234.223 701.765 235.673 701.366 238.572L704.478 238.332L706.273 238.252C706.246 235.566 705.648 234.223 704.478 234.223ZM701.246 240.726V240.806C701.246 244.928 702.789 246.989 705.874 246.989C707.496 246.989 709.345 246.59 711.419 245.792L712.337 247.229C710.076 249.543 707.337 250.699 704.119 250.699C701.911 250.699 699.837 249.955 697.895 248.465C696.938 247.747 696.153 246.776 695.541 245.553C694.956 244.33 694.664 242.96 694.664 241.444C694.664 238.359 695.661 235.899 697.656 234.063C699.65 232.202 702.084 231.271 704.956 231.271C706.871 231.271 708.547 231.803 709.983 232.867C711.632 234.063 712.457 236.138 712.457 239.09C712.244 239.728 711.978 240.274 711.659 240.726H701.246ZM720.795 247.907C721.593 247.907 722.232 247.721 722.71 247.348C723.216 246.949 723.468 246.444 723.468 245.832C723.468 245.194 723.056 244.569 722.232 243.957C721.407 243.319 720.49 242.774 719.479 242.322C718.495 241.843 717.591 241.138 716.766 240.207C715.942 239.276 715.529 238.199 715.529 236.976C715.529 235.087 716.194 233.665 717.524 232.707C718.88 231.75 720.769 231.271 723.189 231.271C724.732 231.271 726.367 231.55 728.096 232.109C728.096 232.481 728.096 233.119 728.096 234.024C728.096 234.928 728.016 236.045 727.857 237.375C727.165 237.375 726.514 237.308 725.902 237.175C725.955 236.856 725.982 236.55 725.982 236.258C725.982 234.609 725.117 233.784 723.389 233.784C722.777 233.784 722.258 233.957 721.833 234.303C721.434 234.622 721.234 235.114 721.234 235.779C721.234 236.417 721.66 237.029 722.511 237.614C723.389 238.173 724.333 238.665 725.343 239.09C726.381 239.489 727.325 240.167 728.176 241.125C729.054 242.082 729.492 243.239 729.492 244.596C729.492 246.351 728.708 247.814 727.139 248.984C725.596 250.128 723.641 250.699 721.274 250.699C718.907 250.699 716.872 250.447 715.17 249.941C715.144 249.383 715.13 248.652 715.13 247.747C715.13 246.816 715.197 245.659 715.33 244.276C715.862 244.276 716.553 244.33 717.404 244.436C717.404 244.516 717.404 244.755 717.404 245.154C717.404 245.553 717.497 245.992 717.684 246.471C717.896 246.949 718.229 247.295 718.681 247.508C719.293 247.774 719.998 247.907 720.795 247.907ZM741.177 234.223C739.502 234.223 738.465 235.673 738.066 238.572L741.177 238.332L742.973 238.252C742.946 235.566 742.348 234.223 741.177 234.223ZM737.946 240.726V240.806C737.946 244.928 739.489 246.989 742.574 246.989C744.196 246.989 746.045 246.59 748.119 245.792L749.037 247.229C746.776 249.543 744.037 250.699 740.818 250.699C738.611 250.699 736.536 249.955 734.595 248.465C733.637 247.747 732.853 246.776 732.241 245.553C731.656 244.33 731.363 242.96 731.363 241.444C731.363 238.359 732.361 235.899 734.355 234.063C736.35 232.202 738.784 231.271 741.656 231.271C743.571 231.271 745.247 231.803 746.683 232.867C748.332 234.063 749.156 236.138 749.156 239.09C748.944 239.728 748.678 240.274 748.358 240.726H737.946ZM772.535 237.574V247.468C773.626 247.761 774.517 247.907 775.208 247.907C775.208 248.066 775.208 248.346 775.208 248.745C775.208 249.117 775.142 249.596 775.009 250.181H764.197C764.171 249.968 764.158 249.675 764.158 249.303C764.158 248.931 764.224 248.465 764.357 247.907C765.049 247.774 765.554 247.548 765.873 247.229C766.192 246.909 766.352 246.351 766.352 245.553V238.372C766.352 237.335 766.112 236.564 765.634 236.058C765.155 235.526 764.53 235.26 763.759 235.26C762.216 235.26 761.019 236.457 760.168 238.851V247.508C760.806 247.774 761.551 247.907 762.402 247.907C762.402 248.066 762.402 248.332 762.402 248.705C762.402 249.077 762.349 249.569 762.243 250.181H751.272C751.272 249.968 751.272 249.662 751.272 249.263C751.272 248.838 751.338 248.386 751.471 247.907C752.296 247.774 752.921 247.548 753.346 247.229C753.772 246.883 753.984 246.324 753.984 245.553V235.26C753.586 235.207 753.147 235.181 752.668 235.181C752.216 235.181 751.764 235.194 751.312 235.22C751.365 234.29 751.484 233.558 751.671 233.026C754.091 232.149 756.737 231.63 759.61 231.47C759.849 232.774 760.009 233.97 760.088 235.061C761.365 232.534 763.453 231.271 766.352 231.271C768.214 231.271 769.703 231.829 770.82 232.946C771.964 234.063 772.535 235.606 772.535 237.574ZM784.53 250.62C782.881 250.62 781.551 250.128 780.54 249.144C779.556 248.133 779.064 246.657 779.064 244.715V234.901C778.346 234.795 777.522 234.742 776.591 234.742C776.564 234.502 776.551 234.21 776.551 233.864C776.551 233.518 776.591 233.146 776.67 232.747C777.229 232.481 778.014 232.215 779.024 231.949L783.971 225.606L785.248 225.965V231.829C786.95 231.776 788.519 231.643 789.955 231.43C789.955 232.76 789.822 233.837 789.556 234.662H785.248L785.288 244.596C785.288 245.34 785.407 245.859 785.647 246.151C785.913 246.444 786.378 246.59 787.043 246.59C787.734 246.59 788.546 246.271 789.477 245.633L790.554 246.989C788.825 249.41 786.817 250.62 784.53 250.62ZM798.723 244.995C798.723 245.58 798.869 246.058 799.162 246.431C799.481 246.776 799.959 246.949 800.598 246.949C801.263 246.949 801.861 246.63 802.393 245.992V241.604L801.276 241.963C799.574 242.494 798.723 243.505 798.723 244.995ZM811.808 248.146C811.09 248.997 810.385 249.636 809.694 250.061C809.029 250.487 808.191 250.699 807.18 250.699C806.17 250.699 805.226 250.5 804.348 250.101C803.497 249.675 802.912 249.104 802.592 248.386C801.369 249.928 799.826 250.699 797.965 250.699C796.13 250.699 794.693 250.221 793.656 249.263C792.645 248.279 792.14 247.029 792.14 245.513C792.14 242.747 794.002 240.992 797.725 240.247L802.393 239.33V238.133C802.393 236.404 801.382 235.54 799.361 235.54C797.898 235.54 796.369 235.806 794.773 236.337L793.497 234.462C795.864 232.335 798.67 231.271 801.914 231.271C804.122 231.271 805.771 231.856 806.861 233.026C807.978 234.196 808.537 235.859 808.537 238.013V245.074C808.537 246.378 808.949 247.029 809.773 247.029C809.906 247.029 810.398 246.949 811.25 246.79L811.808 248.146ZM820.216 250.62C818.568 250.62 817.238 250.128 816.227 249.144C815.243 248.133 814.751 246.657 814.751 244.715V234.901C814.033 234.795 813.208 234.742 812.277 234.742C812.251 234.502 812.238 234.21 812.238 233.864C812.238 233.518 812.277 233.146 812.357 232.747C812.916 232.481 813.7 232.215 814.711 231.949L819.658 225.606L820.935 225.965V231.829C822.637 231.776 824.206 231.643 825.642 231.43C825.642 232.76 825.509 233.837 825.243 234.662H820.935L820.974 244.596C820.974 245.34 821.094 245.859 821.334 246.151C821.599 246.444 822.065 246.59 822.73 246.59C823.421 246.59 824.233 246.271 825.163 245.633L826.241 246.989C824.512 249.41 822.504 250.62 820.216 250.62ZM837.082 226.404C837.082 227.361 836.75 228.186 836.085 228.877C835.42 229.542 834.596 229.875 833.612 229.875C832.654 229.875 831.83 229.542 831.138 228.877C830.447 228.186 830.101 227.361 830.101 226.404C830.101 225.42 830.447 224.595 831.138 223.93C831.83 223.239 832.654 222.893 833.612 222.893C834.596 222.893 835.42 223.239 836.085 223.93C836.75 224.595 837.082 225.42 837.082 226.404ZM838.958 247.907C838.958 248.066 838.958 248.332 838.958 248.705C838.958 249.077 838.904 249.569 838.798 250.181H827.827C827.827 249.968 827.827 249.662 827.827 249.263C827.827 248.838 827.893 248.386 828.026 247.907C828.851 247.774 829.476 247.548 829.901 247.229C830.327 246.883 830.54 246.324 830.54 245.553V235.22C830.141 235.167 829.702 235.141 829.223 235.141C828.771 235.141 828.319 235.154 827.867 235.181C827.92 234.25 828.04 233.505 828.226 232.946C830.806 232.069 833.638 231.563 836.723 231.43V247.508C837.362 247.774 838.106 247.907 838.958 247.907ZM854.829 241.923C854.829 236.657 853.619 234.024 851.199 234.024C849.045 234.024 847.967 236.045 847.967 240.088C847.967 240.38 847.967 240.673 847.967 240.965C848.154 245.566 849.39 247.867 851.678 247.867C852.848 247.867 853.659 247.362 854.111 246.351C854.59 245.314 854.829 243.838 854.829 241.923ZM851.438 231.271C854.417 231.271 856.824 232.095 858.659 233.744C860.521 235.367 861.452 237.774 861.452 240.965C861.452 244.13 860.521 246.537 858.659 248.186C856.797 249.808 854.377 250.62 851.398 250.62C848.42 250.62 845.999 249.808 844.138 248.186C842.302 246.537 841.385 244.13 841.385 240.965C841.385 237.774 842.316 235.367 844.177 233.744C846.039 232.095 848.459 231.271 851.438 231.271ZM884.622 237.574V247.468C885.712 247.761 886.603 247.907 887.295 247.907C887.295 248.066 887.295 248.346 887.295 248.745C887.295 249.117 887.228 249.596 887.095 250.181H876.284C876.257 249.968 876.244 249.675 876.244 249.303C876.244 248.931 876.31 248.465 876.443 247.907C877.135 247.774 877.64 247.548 877.959 247.229C878.279 246.909 878.438 246.351 878.438 245.553V238.372C878.438 237.335 878.199 236.564 877.72 236.058C877.241 235.526 876.616 235.26 875.845 235.26C874.302 235.26 873.106 236.457 872.254 238.851V247.508C872.893 247.774 873.637 247.907 874.489 247.907C874.489 248.066 874.489 248.332 874.489 248.705C874.489 249.077 874.435 249.569 874.329 250.181H863.358C863.358 249.968 863.358 249.662 863.358 249.263C863.358 248.838 863.424 248.386 863.557 247.907C864.382 247.774 865.007 247.548 865.432 247.229C865.858 246.883 866.071 246.324 866.071 245.553V235.26C865.672 235.207 865.233 235.181 864.754 235.181C864.302 235.181 863.85 235.194 863.398 235.22C863.451 234.29 863.571 233.558 863.757 233.026C866.177 232.149 868.824 231.63 871.696 231.47C871.935 232.774 872.095 233.97 872.175 235.061C873.451 232.534 875.539 231.271 878.438 231.271C880.3 231.271 881.789 231.829 882.906 232.946C884.05 234.063 884.622 235.606 884.622 237.574ZM909.981 247.907C909.981 248.066 909.981 248.332 909.981 248.705C909.981 249.077 909.927 249.569 909.821 250.181H898.85C898.85 249.968 898.85 249.662 898.85 249.263C898.85 248.838 898.917 248.386 899.049 247.907C899.874 247.774 900.499 247.548 900.925 247.229C901.35 246.883 901.563 246.324 901.563 245.553V225.247C901.27 225.194 900.885 225.167 900.406 225.167C899.927 225.167 899.422 225.18 898.89 225.207C898.943 224.249 899.063 223.505 899.249 222.973C901.802 222.069 904.635 221.563 907.746 221.457V247.508C908.385 247.774 909.129 247.907 909.981 247.907ZM922.222 234.223C920.546 234.223 919.509 235.673 919.11 238.572L922.222 238.332L924.017 238.252C923.991 235.566 923.392 234.223 922.222 234.223ZM918.99 240.726V240.806C918.99 244.928 920.533 246.989 923.618 246.989C925.241 246.989 927.089 246.59 929.164 245.792L930.081 247.229C927.82 249.543 925.081 250.699 921.863 250.699C919.655 250.699 917.581 249.955 915.639 248.465C914.682 247.747 913.897 246.776 913.286 245.553C912.7 244.33 912.408 242.96 912.408 241.444C912.408 238.359 913.405 235.899 915.4 234.063C917.395 232.202 919.828 231.271 922.701 231.271C924.616 231.271 926.291 231.803 927.727 232.867C929.376 234.063 930.201 236.138 930.201 239.09C929.988 239.728 929.722 240.274 929.403 240.726H918.99ZM938.899 244.995C938.899 245.58 939.045 246.058 939.338 246.431C939.657 246.776 940.135 246.949 940.774 246.949C941.439 246.949 942.037 246.63 942.569 245.992V241.604L941.452 241.963C939.75 242.494 938.899 243.505 938.899 244.995ZM951.984 248.146C951.266 248.997 950.561 249.636 949.87 250.061C949.205 250.487 948.367 250.699 947.356 250.699C946.346 250.699 945.402 250.5 944.524 250.101C943.673 249.675 943.088 249.104 942.769 248.386C941.545 249.928 940.003 250.699 938.141 250.699C936.306 250.699 934.869 250.221 933.832 249.263C932.822 248.279 932.316 247.029 932.316 245.513C932.316 242.747 934.178 240.992 937.901 240.247L942.569 239.33V238.133C942.569 236.404 941.558 235.54 939.537 235.54C938.074 235.54 936.545 235.806 934.949 236.337L933.673 234.462C936.04 232.335 938.846 231.271 942.09 231.271C944.298 231.271 945.947 231.856 947.037 233.026C948.154 234.196 948.713 235.859 948.713 238.013V245.074C948.713 246.378 949.125 247.029 949.95 247.029C950.083 247.029 950.575 246.949 951.426 246.79L951.984 248.146ZM968.531 231.271C968.664 231.723 968.73 232.454 968.73 233.465C968.73 234.476 968.584 235.646 968.292 236.976C964.222 236.976 961.975 238.359 961.549 241.125V247.189C962.507 247.561 963.651 247.8 964.98 247.907C964.98 248.066 964.98 248.332 964.98 248.705C964.98 249.077 964.927 249.569 964.821 250.181H952.653C952.653 249.968 952.653 249.662 952.653 249.263C952.653 248.838 952.719 248.386 952.852 247.907C953.677 247.774 954.302 247.548 954.728 247.229C955.153 246.883 955.366 246.324 955.366 245.553V235.26C954.967 235.207 954.528 235.181 954.049 235.181C953.597 235.181 953.145 235.194 952.693 235.22C952.746 234.29 952.866 233.558 953.052 233.026C955.472 232.149 958.119 231.63 960.991 231.47C961.31 233.305 961.496 235.167 961.549 237.056C962.188 235.353 963.119 233.97 964.342 232.907C965.592 231.816 966.988 231.271 968.531 231.271ZM990.552 237.574V247.468C991.643 247.761 992.534 247.907 993.225 247.907C993.225 248.066 993.225 248.346 993.225 248.745C993.225 249.117 993.159 249.596 993.026 250.181H982.214C982.188 249.968 982.175 249.675 982.175 249.303C982.175 248.931 982.241 248.465 982.374 247.907C983.066 247.774 983.571 247.548 983.89 247.229C984.209 246.909 984.369 246.351 984.369 245.553V238.372C984.369 237.335 984.129 236.564 983.651 236.058C983.172 235.526 982.547 235.26 981.776 235.26C980.233 235.26 979.036 236.457 978.185 238.851V247.508C978.823 247.774 979.568 247.907 980.419 247.907C980.419 248.066 980.419 248.332 980.419 248.705C980.419 249.077 980.366 249.569 980.26 250.181H969.289C969.289 249.968 969.289 249.662 969.289 249.263C969.289 248.838 969.355 248.386 969.488 247.907C970.313 247.774 970.938 247.548 971.363 247.229C971.789 246.883 972.001 246.324 972.001 245.553V235.26C971.603 235.207 971.164 235.181 970.685 235.181C970.233 235.181 969.781 235.194 969.329 235.22C969.382 234.29 969.501 233.558 969.688 233.026C972.108 232.149 974.754 231.63 977.627 231.47C977.866 232.774 978.026 233.97 978.105 235.061C979.382 232.534 981.47 231.271 984.369 231.271C986.231 231.271 987.72 231.829 988.837 232.946C989.981 234.063 990.552 235.606 990.552 237.574ZM1001.03 247.907C1001.83 247.907 1002.47 247.721 1002.95 247.348C1003.45 246.949 1003.7 246.444 1003.7 245.832C1003.7 245.194 1003.29 244.569 1002.47 243.957C1001.64 243.319 1000.72 242.774 999.714 242.322C998.73 241.843 997.826 241.138 997.001 240.207C996.177 239.276 995.765 238.199 995.765 236.976C995.765 235.087 996.429 233.665 997.759 232.707C999.116 231.75 1001 231.271 1003.42 231.271C1004.97 231.271 1006.6 231.55 1008.33 232.109C1008.33 232.481 1008.33 233.119 1008.33 234.024C1008.33 234.928 1008.25 236.045 1008.09 237.375C1007.4 237.375 1006.75 237.308 1006.14 237.175C1006.19 236.856 1006.22 236.55 1006.22 236.258C1006.22 234.609 1005.35 233.784 1003.62 233.784C1003.01 233.784 1002.49 233.957 1002.07 234.303C1001.67 234.622 1001.47 235.114 1001.47 235.779C1001.47 236.417 1001.9 237.029 1002.75 237.614C1003.62 238.173 1004.57 238.665 1005.58 239.09C1006.62 239.489 1007.56 240.167 1008.41 241.125C1009.29 242.082 1009.73 243.239 1009.73 244.596C1009.73 246.351 1008.94 247.814 1007.37 248.984C1005.83 250.128 1003.88 250.699 1001.51 250.699C999.142 250.699 997.108 250.447 995.406 249.941C995.379 249.383 995.366 248.652 995.366 247.747C995.366 246.816 995.432 245.659 995.565 244.276C996.097 244.276 996.789 244.33 997.64 244.436C997.64 244.516 997.64 244.755 997.64 245.154C997.64 245.553 997.733 245.992 997.919 246.471C998.132 246.949 998.464 247.295 998.916 247.508C999.528 247.774 1000.23 247.907 1001.03 247.907ZM1023.21 250.141C1022.62 250.726 1021.92 251.019 1021.09 251.019C1020.27 251.019 1019.56 250.726 1018.98 250.141C1018.39 249.556 1018.1 248.851 1018.1 248.027C1018.1 247.202 1018.39 246.497 1018.98 245.912C1019.56 245.3 1020.27 244.995 1021.09 244.995C1021.92 244.995 1022.62 245.3 1023.21 245.912C1023.82 246.497 1024.13 247.202 1024.13 248.027C1024.13 248.851 1023.82 249.556 1023.21 250.141ZM1024.05 232.188C1024.31 231.896 1024.54 231.537 1024.72 231.111C1024.94 230.686 1025.04 230.207 1025.04 229.675C1025.04 229.143 1024.8 228.691 1024.32 228.319C1023.87 227.92 1023.26 227.72 1022.49 227.72C1020.89 227.72 1019.18 228.412 1017.34 229.795L1014.19 225.845C1015.81 224.303 1017.78 223.531 1020.1 223.531C1022.44 223.531 1024.54 224.329 1026.4 225.925C1028.29 227.494 1029.23 229.343 1029.23 231.47C1029.23 233.492 1028.18 235.194 1026.08 236.577C1025.28 237.109 1024.17 237.694 1022.73 238.332V242.641H1022.37L1019.1 241.085V235.021C1019.31 234.915 1019.72 234.728 1020.34 234.462C1020.95 234.17 1021.4 233.944 1021.69 233.784C1022.01 233.625 1022.42 233.385 1022.93 233.066C1023.43 232.747 1023.81 232.454 1024.05 232.188Z" fill="white"/>
</svg>
